<svg width="749" height="108" viewBox="0 0 749 108" fill="none" xmlns="http://www.w3.org/2000/svg">
<path d="M254.51 83.76C252.857 83.76 251.47 83.2 250.35 82.08C249.177 81.0133 248.59 79.36 248.59 77.12C248.59 75.2 249.017 73.1467 249.87 70.96C250.724 68.72 251.897 66.5333 253.39 64.4C254.884 62.2133 256.564 60.24 258.43 58.48C260.35 56.6667 262.35 55.2267 264.43 54.16C266.564 53.0933 268.67 52.56 270.75 52.56C272.83 52.56 274.564 53.12 275.95 54.24C277.337 55.3067 278.03 56.7467 278.03 58.56C278.03 59.8933 277.657 60.8 276.91 61.28C276.217 61.76 275.284 62 274.11 62C274.217 61.5733 274.297 61.12 274.35 60.64C274.457 60.1067 274.51 59.6267 274.51 59.2C274.51 57.9733 274.217 56.9333 273.63 56.08C273.044 55.1733 272.03 54.72 270.59 54.72C269.097 54.72 267.577 55.2533 266.03 56.32C264.484 57.3333 262.99 58.72 261.55 60.48C260.11 62.1867 258.83 64.0533 257.71 66.08C256.59 68.1067 255.71 70.1067 255.07 72.08C254.43 74.0533 254.11 75.8133 254.11 77.36C254.11 79.44 254.83 80.48 256.27 80.48C257.497 80.48 258.83 79.92 260.27 78.8C261.71 77.6267 263.177 76.16 264.67 74.4C266.217 72.5867 267.684 70.72 269.07 68.8C270.457 66.88 271.684 65.12 272.75 63.52C272.964 63.2 273.097 63.04 273.15 63.04C273.47 63.0933 273.87 63.2 274.35 63.36C274.884 63.52 275.337 63.7333 275.71 64C276.084 64.2667 276.27 64.6133 276.27 65.04C276.27 65.52 276.03 66.1867 275.55 67.04C275.07 67.84 274.537 68.7733 273.95 69.84C273.364 70.9067 272.83 72 272.35 73.12C271.87 74.1867 271.63 75.2 271.63 76.16C271.63 76.96 271.844 77.76 272.27 78.56C272.697 79.3067 273.39 79.68 274.35 79.68C275.79 79.68 277.684 78.64 280.03 76.56C282.377 74.4267 284.75 71.2533 287.15 67.04L287.95 67.84C286.83 70.72 285.39 73.2533 283.63 75.44C281.87 77.6267 279.977 79.3333 277.95 80.56C275.977 81.7867 274.03 82.4 272.11 82.4C270.137 82.4 268.67 81.8133 267.71 80.64C266.804 79.4667 266.35 78.1867 266.35 76.8C266.35 76.48 266.377 76.1333 266.43 75.76C266.484 75.3333 266.537 74.9067 266.59 74.48C264.297 77.5733 262.19 79.8933 260.27 81.44C258.404 82.9867 256.484 83.76 254.51 83.76ZM294.554 82.4C292.261 82.4 290.607 81.6 289.594 80C288.634 78.4533 288.154 76.5067 288.154 74.16C288.154 71.6 288.634 68.56 289.594 65.04C290.554 61.52 291.807 57.8133 293.354 53.92C294.954 50.0267 296.687 46.24 298.554 42.56C300.421 38.8267 302.287 35.44 304.154 32.4C306.021 29.36 307.727 26.9333 309.274 25.12C310.874 23.3067 312.127 22.4 313.034 22.4C313.621 22.4 314.101 22.7467 314.474 23.44C314.847 24.08 315.141 24.88 315.354 25.84C315.567 26.7467 315.674 27.5733 315.674 28.32C315.674 29.76 315.301 31.6533 314.554 34C313.861 36.2933 312.847 38.88 311.514 41.76C310.234 44.5867 308.687 47.4667 306.874 50.4C305.114 53.28 303.167 56.0533 301.034 58.72C298.954 61.3867 296.741 63.68 294.394 65.6C294.074 67.04 293.807 68.4533 293.594 69.84C293.434 71.1733 293.354 72.4533 293.354 73.68C293.354 75.76 293.647 77.3067 294.234 78.32C294.821 79.3333 295.701 79.84 296.874 79.84C298.314 79.84 299.727 79.2 301.114 77.92C302.554 76.64 303.887 75.04 305.114 73.12C306.394 71.1467 307.487 69.12 308.394 67.04L309.594 67.68C307.461 72.2133 305.141 75.8133 302.634 78.48C300.127 81.0933 297.434 82.4 294.554 82.4ZM295.114 62.88C296.981 61.0133 298.794 58.88 300.554 56.48C302.314 54.0267 303.941 51.4933 305.434 48.88C306.981 46.2667 308.341 43.7333 309.514 41.28C310.687 38.8267 311.594 36.64 312.234 34.72C312.874 32.7467 313.194 31.2267 313.194 30.16C313.194 29.6267 313.114 29.28 312.954 29.12C312.847 28.96 312.741 28.88 312.634 28.88C312.207 28.88 311.461 29.5733 310.394 30.96C309.381 32.2933 308.181 34.1067 306.794 36.4C305.407 38.6933 303.994 41.3067 302.554 44.24C301.114 47.1733 299.727 50.24 298.394 53.44C297.114 56.64 296.021 59.7867 295.114 62.88ZM331.78 83.12C330.127 83.12 328.98 82.3467 328.34 80.8C327.754 79.3067 327.46 77.4933 327.46 75.36C327.46 74.2933 327.514 73.1467 327.62 71.92C327.727 70.64 327.86 69.3867 328.02 68.16C326.847 70.5067 325.567 72.7733 324.18 74.96C322.847 77.1467 321.434 78.9333 319.94 80.32C318.447 81.7067 316.874 82.4 315.22 82.4C313.46 82.4 312.02 81.6 310.9 80C309.78 78.4 309.22 76.5067 309.22 74.32C309.22 72.7733 309.46 70.9867 309.94 68.96C310.474 66.9333 311.114 64.9333 311.86 62.96C312.607 60.9867 313.38 59.36 314.18 58.08C314.98 56.8 315.674 56.16 316.26 56.16C316.527 56.16 317.087 56.32 317.94 56.64C318.794 56.9067 319.22 57.28 319.22 57.76C318.634 58.6667 317.914 60.0533 317.06 61.92C316.207 63.7867 315.46 65.8133 314.82 68C314.18 70.1333 313.86 72.08 313.86 73.84C313.86 74.2667 313.914 74.9333 314.02 75.84C314.127 76.6933 314.367 77.4667 314.74 78.16C315.167 78.8533 315.807 79.2 316.66 79.2C317.887 79.2 319.194 78.4267 320.58 76.88C321.967 75.3333 323.354 73.3867 324.74 71.04C326.127 68.6933 327.434 66.32 328.66 63.92C329.087 61.7333 329.434 60.1333 329.7 59.12C330.02 58.1067 330.34 57.4667 330.66 57.2C330.98 56.88 331.38 56.72 331.86 56.72C332.554 56.72 333.114 56.88 333.54 57.2C333.967 57.4667 334.18 57.8933 334.18 58.48C334.18 58.5867 334.154 58.72 334.1 58.88C334.1 59.04 334.074 59.2 334.02 59.36C333.647 60.64 333.274 62.2667 332.9 64.24C332.58 66.16 332.314 68.16 332.1 70.24C331.887 72.32 331.78 74.2667 331.78 76.08C331.78 77.3067 331.914 78.2667 332.18 78.96C332.447 79.6533 332.9 80 333.54 80C334.34 80 335.274 79.52 336.34 78.56C337.407 77.5467 338.5 76.24 339.62 74.64C340.794 72.9867 341.914 71.2 342.98 69.28C344.1 67.36 345.087 65.4667 345.94 63.6C345.94 60.8267 346.127 58.72 346.5 57.28C346.927 55.7867 347.434 54.7733 348.02 54.24C348.66 53.7067 349.3 53.44 349.94 53.44C350.954 53.44 351.674 53.8133 352.1 54.56C352.58 55.2533 352.82 55.8933 352.82 56.48C352.82 56.8533 352.74 57.2533 352.58 57.68C352.42 58.0533 352.207 58.48 351.94 58.96C351.514 59.76 351.087 60.8 350.66 62.08C350.234 63.3067 350.02 65.0133 350.02 67.2C350.02 68.0533 350.1 68.96 350.26 69.92C350.42 70.88 350.767 71.68 351.3 72.32C351.834 72.96 352.66 73.28 353.78 73.28C354.9 73.28 355.967 72.8533 356.98 72C358.047 71.0933 359.087 69.5467 360.1 67.36L361.14 68.16C359.967 70.8267 358.66 72.6133 357.22 73.52C355.834 74.4267 354.5 74.88 353.22 74.88C351.567 74.88 350.154 74.32 348.98 73.2C347.86 72.08 347.034 70.4 346.5 68.16C345.167 70.6133 343.674 72.9867 342.02 75.28C340.367 77.5733 338.66 79.44 336.9 80.88C335.14 82.3733 333.434 83.12 331.78 83.12ZM364.835 83.76C363.182 83.76 361.795 83.2 360.675 82.08C359.502 81.0133 358.915 79.36 358.915 77.12C358.915 75.2 359.342 73.1467 360.195 70.96C361.049 68.72 362.222 66.5333 363.715 64.4C365.209 62.2133 366.889 60.24 368.755 58.48C370.675 56.6667 372.675 55.2267 374.755 54.16C376.889 53.0933 378.995 52.56 381.075 52.56C383.155 52.56 384.889 53.12 386.275 54.24C387.662 55.3067 388.355 56.7467 388.355 58.56C388.355 59.8933 387.982 60.8 387.235 61.28C386.542 61.76 385.609 62 384.435 62C384.542 61.5733 384.622 61.12 384.675 60.64C384.782 60.1067 384.835 59.6267 384.835 59.2C384.835 57.9733 384.542 56.9333 383.955 56.08C383.369 55.1733 382.355 54.72 380.915 54.72C379.422 54.72 377.902 55.2533 376.355 56.32C374.809 57.3333 373.315 58.72 371.875 60.48C370.435 62.1867 369.155 64.0533 368.035 66.08C366.915 68.1067 366.035 70.1067 365.395 72.08C364.755 74.0533 364.435 75.8133 364.435 77.36C364.435 79.44 365.155 80.48 366.595 80.48C367.822 80.48 369.155 79.92 370.595 78.8C372.035 77.6267 373.502 76.16 374.995 74.4C376.542 72.5867 378.009 70.72 379.395 68.8C380.782 66.88 382.009 65.12 383.075 63.52C383.289 63.2 383.422 63.04 383.475 63.04C383.795 63.0933 384.195 63.2 384.675 63.36C385.209 63.52 385.662 63.7333 386.035 64C386.409 64.2667 386.595 64.6133 386.595 65.04C386.595 65.52 386.355 66.1867 385.875 67.04C385.395 67.84 384.862 68.7733 384.275 69.84C383.689 70.9067 383.155 72 382.675 73.12C382.195 74.1867 381.955 75.2 381.955 76.16C381.955 76.96 382.169 77.76 382.595 78.56C383.022 79.3067 383.715 79.68 384.675 79.68C386.115 79.68 388.009 78.64 390.355 76.56C392.702 74.4267 395.075 71.2533 397.475 67.04L398.275 67.84C397.155 70.72 395.715 73.2533 393.955 75.44C392.195 77.6267 390.302 79.3333 388.275 80.56C386.302 81.7867 384.355 82.4 382.435 82.4C380.462 82.4 378.995 81.8133 378.035 80.64C377.129 79.4667 376.675 78.1867 376.675 76.8C376.675 76.48 376.702 76.1333 376.755 75.76C376.809 75.3333 376.862 74.9067 376.915 74.48C374.622 77.5733 372.515 79.8933 370.595 81.44C368.729 82.9867 366.809 83.76 364.835 83.76ZM401.679 102.4C400.346 102.4 399.172 102.027 398.159 101.28C397.146 100.587 396.639 99.5467 396.639 98.16C396.639 96.4533 397.066 94.9333 397.919 93.6C398.772 92.2667 399.919 91.04 401.359 89.92C402.799 88.8 404.452 87.7333 406.319 86.72C408.186 85.7067 410.132 84.6933 412.159 83.68C412.906 81.7067 413.652 79.52 414.399 77.12C415.199 74.6667 415.946 71.9733 416.639 69.04C414.932 71.8133 413.092 74.2133 411.119 76.24C409.199 78.2133 407.146 79.2 404.959 79.2C403.946 79.2 402.932 78.9867 401.919 78.56C400.959 78.08 400.159 77.36 399.519 76.4C398.879 75.44 398.559 74.2133 398.559 72.72C398.559 71.2267 398.799 69.4933 399.279 67.52C399.812 65.5467 400.452 63.6267 401.199 61.76C401.946 59.8933 402.719 58.3467 403.519 57.12C404.319 55.8933 405.012 55.28 405.599 55.28C405.812 55.28 406.186 55.36 406.719 55.52C407.306 55.68 407.839 55.92 408.319 56.24C408.852 56.5067 409.119 56.8 409.119 57.12C408.639 57.8133 408.106 58.8 407.519 60.08C406.932 61.36 406.346 62.8 405.759 64.4C405.226 65.9467 404.772 67.4667 404.399 68.96C404.026 70.4533 403.839 71.7333 403.839 72.8C403.839 73.76 404.052 74.5333 404.479 75.12C404.906 75.7067 405.652 76 406.719 76C407.732 76 408.852 75.52 410.079 74.56C411.359 73.5467 412.612 72.2667 413.839 70.72C415.119 69.1733 416.292 67.52 417.359 65.76C417.519 65.1733 417.652 64.5867 417.759 64C417.919 63.36 418.052 62.72 418.159 62.08C418.319 61.3333 418.692 60.48 419.279 59.52C419.919 58.5067 420.906 58 422.239 58C422.506 58 422.772 58.0267 423.039 58.08C423.306 58.08 423.599 58.1333 423.919 58.24C423.919 59.0933 423.652 60.6933 423.119 63.04C422.639 65.3333 421.919 68.0267 420.959 71.12C420.052 74.2133 418.959 77.3867 417.679 80.64C420.186 79.68 422.639 78.1067 425.039 75.92C427.439 73.68 429.386 70.72 430.879 67.04L431.919 67.84C431.119 70.4 429.892 72.64 428.239 74.56C426.639 76.4267 424.826 78.0533 422.799 79.44C420.772 80.7733 418.772 81.8933 416.799 82.8C415.412 86.2133 413.892 89.4133 412.239 92.4C410.639 95.3867 408.932 97.7867 407.119 99.6C405.359 101.467 403.546 102.4 401.679 102.4ZM401.279 99.84C402.079 99.84 403.412 98.7733 405.279 96.64C407.199 94.56 409.226 90.88 411.359 85.6C409.172 86.7733 407.146 87.92 405.279 89.04C403.412 90.2133 401.919 91.4667 400.799 92.8C399.679 94.1333 399.119 95.68 399.119 97.44C399.119 97.8667 399.279 98.3733 399.599 98.96C399.919 99.5467 400.479 99.84 401.279 99.84ZM440.133 84.08C437.626 84.08 435.626 83.52 434.133 82.4C432.693 81.3333 431.679 80 431.093 78.4C430.453 76.8 430.133 75.2 430.133 73.6C430.133 72 430.346 70.7733 430.773 69.92C431.199 69.0667 431.706 68.4267 432.293 68C432.933 67.5733 433.519 67.2533 434.053 67.04C434.639 66.8267 435.039 66.6133 435.253 66.4C436.853 64.64 438.319 62.8 439.653 60.88C440.986 58.96 442.159 56.9333 443.173 54.8V53.84C443.173 51.8667 443.493 50.48 444.133 49.68C444.826 48.8267 445.546 48.4 446.293 48.4C446.719 48.4 447.039 48.5067 447.253 48.72C447.466 48.9333 447.573 49.1733 447.573 49.44C447.573 49.7067 447.493 50.1333 447.333 50.72C447.173 51.3067 447.093 52.0533 447.093 52.96C447.093 54.72 447.439 56.64 448.133 58.72C448.826 60.7467 449.519 62.9067 450.213 65.2C450.906 67.44 451.253 69.7867 451.253 72.24C451.253 72.9333 451.199 73.6267 451.093 74.32C451.039 74.96 450.933 75.5733 450.773 76.16C452.639 75.84 454.399 75.0133 456.053 73.68C457.706 72.2933 459.306 70.1067 460.853 67.12L461.573 67.92C460.559 70.8533 459.039 73.0933 457.013 74.64C454.986 76.1333 452.773 77.0667 450.373 77.44C449.519 79.7333 448.159 81.4133 446.293 82.48C444.479 83.5467 442.426 84.08 440.133 84.08ZM440.293 81.28C440.933 81.28 441.786 81.0667 442.853 80.64C443.919 80.2133 444.746 79.12 445.333 77.36C443.093 76.9333 441.093 76.0533 439.333 74.72C437.626 73.3867 436.346 72.0533 435.493 70.72C434.319 70.7733 433.733 71.7067 433.733 73.52C433.733 75.44 434.293 77.2267 435.413 78.88C436.586 80.48 438.213 81.28 440.293 81.28ZM445.733 76.08C445.839 75.5467 445.919 74.9867 445.973 74.4C446.026 73.8133 446.053 73.12 446.053 72.32C446.053 69.8133 445.733 67.3333 445.093 64.88C444.506 62.3733 443.999 60.0267 443.573 57.84C442.346 59.8667 441.039 61.8133 439.653 63.68C438.319 65.4933 437.039 67.0133 435.813 68.24C436.613 69.9467 437.839 71.5467 439.493 73.04C441.199 74.5333 443.279 75.5467 445.733 76.08ZM464.911 80.8C464.218 80.8 463.604 80.6133 463.071 80.24C462.591 79.92 462.351 79.3867 462.351 78.64C462.351 78.0533 462.591 77.52 463.071 77.04C463.551 76.5067 464.138 76.1067 464.831 75.84C465.578 75.52 466.298 75.36 466.991 75.36C467.631 75.36 468.138 75.4933 468.511 75.76C468.884 76.0267 469.071 76.5333 469.071 77.28C469.071 77.8133 468.858 78.3467 468.431 78.88C468.058 79.4133 467.551 79.8667 466.911 80.24C466.271 80.6133 465.604 80.8 464.911 80.8ZM484.42 80.8C483.727 80.8 483.114 80.6133 482.58 80.24C482.1 79.92 481.86 79.3867 481.86 78.64C481.86 78.0533 482.1 77.52 482.58 77.04C483.06 76.5067 483.647 76.1067 484.34 75.84C485.087 75.52 485.807 75.36 486.5 75.36C487.14 75.36 487.647 75.4933 488.02 75.76C488.394 76.0267 488.58 76.5333 488.58 77.28C488.58 77.8133 488.367 78.3467 487.94 78.88C487.567 79.4133 487.06 79.8667 486.42 80.24C485.78 80.6133 485.114 80.8 484.42 80.8Z" fill="url(#paint0_linear_9_651)"/>
<path d="M254.51 83.76C252.857 83.76 251.47 83.2 250.35 82.08C249.177 81.0133 248.59 79.36 248.59 77.12C248.59 75.2 249.017 73.1467 249.87 70.96C250.724 68.72 251.897 66.5333 253.39 64.4C254.884 62.2133 256.564 60.24 258.43 58.48C260.35 56.6667 262.35 55.2267 264.43 54.16C266.564 53.0933 268.67 52.56 270.75 52.56C272.83 52.56 274.564 53.12 275.95 54.24C277.337 55.3067 278.03 56.7467 278.03 58.56C278.03 59.8933 277.657 60.8 276.91 61.28C276.217 61.76 275.284 62 274.11 62C274.217 61.5733 274.297 61.12 274.35 60.64C274.457 60.1067 274.51 59.6267 274.51 59.2C274.51 57.9733 274.217 56.9333 273.63 56.08C273.044 55.1733 272.03 54.72 270.59 54.72C269.097 54.72 267.577 55.2533 266.03 56.32C264.484 57.3333 262.99 58.72 261.55 60.48C260.11 62.1867 258.83 64.0533 257.71 66.08C256.59 68.1067 255.71 70.1067 255.07 72.08C254.43 74.0533 254.11 75.8133 254.11 77.36C254.11 79.44 254.83 80.48 256.27 80.48C257.497 80.48 258.83 79.92 260.27 78.8C261.71 77.6267 263.177 76.16 264.67 74.4C266.217 72.5867 267.684 70.72 269.07 68.8C270.457 66.88 271.684 65.12 272.75 63.52C272.964 63.2 273.097 63.04 273.15 63.04C273.47 63.0933 273.87 63.2 274.35 63.36C274.884 63.52 275.337 63.7333 275.71 64C276.084 64.2667 276.27 64.6133 276.27 65.04C276.27 65.52 276.03 66.1867 275.55 67.04C275.07 67.84 274.537 68.7733 273.95 69.84C273.364 70.9067 272.83 72 272.35 73.12C271.87 74.1867 271.63 75.2 271.63 76.16C271.63 76.96 271.844 77.76 272.27 78.56C272.697 79.3067 273.39 79.68 274.35 79.68C275.79 79.68 277.684 78.64 280.03 76.56C282.377 74.4267 284.75 71.2533 287.15 67.04L287.95 67.84C286.83 70.72 285.39 73.2533 283.63 75.44C281.87 77.6267 279.977 79.3333 277.95 80.56C275.977 81.7867 274.03 82.4 272.11 82.4C270.137 82.4 268.67 81.8133 267.71 80.64C266.804 79.4667 266.35 78.1867 266.35 76.8C266.35 76.48 266.377 76.1333 266.43 75.76C266.484 75.3333 266.537 74.9067 266.59 74.48C264.297 77.5733 262.19 79.8933 260.27 81.44C258.404 82.9867 256.484 83.76 254.51 83.76ZM294.554 82.4C292.261 82.4 290.607 81.6 289.594 80C288.634 78.4533 288.154 76.5067 288.154 74.16C288.154 71.6 288.634 68.56 289.594 65.04C290.554 61.52 291.807 57.8133 293.354 53.92C294.954 50.0267 296.687 46.24 298.554 42.56C300.421 38.8267 302.287 35.44 304.154 32.4C306.021 29.36 307.727 26.9333 309.274 25.12C310.874 23.3067 312.127 22.4 313.034 22.4C313.621 22.4 314.101 22.7467 314.474 23.44C314.847 24.08 315.141 24.88 315.354 25.84C315.567 26.7467 315.674 27.5733 315.674 28.32C315.674 29.76 315.301 31.6533 314.554 34C313.861 36.2933 312.847 38.88 311.514 41.76C310.234 44.5867 308.687 47.4667 306.874 50.4C305.114 53.28 303.167 56.0533 301.034 58.72C298.954 61.3867 296.741 63.68 294.394 65.6C294.074 67.04 293.807 68.4533 293.594 69.84C293.434 71.1733 293.354 72.4533 293.354 73.68C293.354 75.76 293.647 77.3067 294.234 78.32C294.821 79.3333 295.701 79.84 296.874 79.84C298.314 79.84 299.727 79.2 301.114 77.92C302.554 76.64 303.887 75.04 305.114 73.12C306.394 71.1467 307.487 69.12 308.394 67.04L309.594 67.68C307.461 72.2133 305.141 75.8133 302.634 78.48C300.127 81.0933 297.434 82.4 294.554 82.4ZM295.114 62.88C296.981 61.0133 298.794 58.88 300.554 56.48C302.314 54.0267 303.941 51.4933 305.434 48.88C306.981 46.2667 308.341 43.7333 309.514 41.28C310.687 38.8267 311.594 36.64 312.234 34.72C312.874 32.7467 313.194 31.2267 313.194 30.16C313.194 29.6267 313.114 29.28 312.954 29.12C312.847 28.96 312.741 28.88 312.634 28.88C312.207 28.88 311.461 29.5733 310.394 30.96C309.381 32.2933 308.181 34.1067 306.794 36.4C305.407 38.6933 303.994 41.3067 302.554 44.24C301.114 47.1733 299.727 50.24 298.394 53.44C297.114 56.64 296.021 59.7867 295.114 62.88ZM331.78 83.12C330.127 83.12 328.98 82.3467 328.34 80.8C327.754 79.3067 327.46 77.4933 327.46 75.36C327.46 74.2933 327.514 73.1467 327.62 71.92C327.727 70.64 327.86 69.3867 328.02 68.16C326.847 70.5067 325.567 72.7733 324.18 74.96C322.847 77.1467 321.434 78.9333 319.94 80.32C318.447 81.7067 316.874 82.4 315.22 82.4C313.46 82.4 312.02 81.6 310.9 80C309.78 78.4 309.22 76.5067 309.22 74.32C309.22 72.7733 309.46 70.9867 309.94 68.96C310.474 66.9333 311.114 64.9333 311.86 62.96C312.607 60.9867 313.38 59.36 314.18 58.08C314.98 56.8 315.674 56.16 316.26 56.16C316.527 56.16 317.087 56.32 317.94 56.64C318.794 56.9067 319.22 57.28 319.22 57.76C318.634 58.6667 317.914 60.0533 317.06 61.92C316.207 63.7867 315.46 65.8133 314.82 68C314.18 70.1333 313.86 72.08 313.86 73.84C313.86 74.2667 313.914 74.9333 314.02 75.84C314.127 76.6933 314.367 77.4667 314.74 78.16C315.167 78.8533 315.807 79.2 316.66 79.2C317.887 79.2 319.194 78.4267 320.58 76.88C321.967 75.3333 323.354 73.3867 324.74 71.04C326.127 68.6933 327.434 66.32 328.66 63.92C329.087 61.7333 329.434 60.1333 329.7 59.12C330.02 58.1067 330.34 57.4667 330.66 57.2C330.98 56.88 331.38 56.72 331.86 56.72C332.554 56.72 333.114 56.88 333.54 57.2C333.967 57.4667 334.18 57.8933 334.18 58.48C334.18 58.5867 334.154 58.72 334.1 58.88C334.1 59.04 334.074 59.2 334.02 59.36C333.647 60.64 333.274 62.2667 332.9 64.24C332.58 66.16 332.314 68.16 332.1 70.24C331.887 72.32 331.78 74.2667 331.78 76.08C331.78 77.3067 331.914 78.2667 332.18 78.96C332.447 79.6533 332.9 80 333.54 80C334.34 80 335.274 79.52 336.34 78.56C337.407 77.5467 338.5 76.24 339.62 74.64C340.794 72.9867 341.914 71.2 342.98 69.28C344.1 67.36 345.087 65.4667 345.94 63.6C345.94 60.8267 346.127 58.72 346.5 57.28C346.927 55.7867 347.434 54.7733 348.02 54.24C348.66 53.7067 349.3 53.44 349.94 53.44C350.954 53.44 351.674 53.8133 352.1 54.56C352.58 55.2533 352.82 55.8933 352.82 56.48C352.82 56.8533 352.74 57.2533 352.58 57.68C352.42 58.0533 352.207 58.48 351.94 58.96C351.514 59.76 351.087 60.8 350.66 62.08C350.234 63.3067 350.02 65.0133 350.02 67.2C350.02 68.0533 350.1 68.96 350.26 69.92C350.42 70.88 350.767 71.68 351.3 72.32C351.834 72.96 352.66 73.28 353.78 73.28C354.9 73.28 355.967 72.8533 356.98 72C358.047 71.0933 359.087 69.5467 360.1 67.36L361.14 68.16C359.967 70.8267 358.66 72.6133 357.22 73.52C355.834 74.4267 354.5 74.88 353.22 74.88C351.567 74.88 350.154 74.32 348.98 73.2C347.86 72.08 347.034 70.4 346.5 68.16C345.167 70.6133 343.674 72.9867 342.02 75.28C340.367 77.5733 338.66 79.44 336.9 80.88C335.14 82.3733 333.434 83.12 331.78 83.12ZM364.835 83.76C363.182 83.76 361.795 83.2 360.675 82.08C359.502 81.0133 358.915 79.36 358.915 77.12C358.915 75.2 359.342 73.1467 360.195 70.96C361.049 68.72 362.222 66.5333 363.715 64.4C365.209 62.2133 366.889 60.24 368.755 58.48C370.675 56.6667 372.675 55.2267 374.755 54.16C376.889 53.0933 378.995 52.56 381.075 52.56C383.155 52.56 384.889 53.12 386.275 54.24C387.662 55.3067 388.355 56.7467 388.355 58.56C388.355 59.8933 387.982 60.8 387.235 61.28C386.542 61.76 385.609 62 384.435 62C384.542 61.5733 384.622 61.12 384.675 60.64C384.782 60.1067 384.835 59.6267 384.835 59.2C384.835 57.9733 384.542 56.9333 383.955 56.08C383.369 55.1733 382.355 54.72 380.915 54.72C379.422 54.72 377.902 55.2533 376.355 56.32C374.809 57.3333 373.315 58.72 371.875 60.48C370.435 62.1867 369.155 64.0533 368.035 66.08C366.915 68.1067 366.035 70.1067 365.395 72.08C364.755 74.0533 364.435 75.8133 364.435 77.36C364.435 79.44 365.155 80.48 366.595 80.48C367.822 80.48 369.155 79.92 370.595 78.8C372.035 77.6267 373.502 76.16 374.995 74.4C376.542 72.5867 378.009 70.72 379.395 68.8C380.782 66.88 382.009 65.12 383.075 63.52C383.289 63.2 383.422 63.04 383.475 63.04C383.795 63.0933 384.195 63.2 384.675 63.36C385.209 63.52 385.662 63.7333 386.035 64C386.409 64.2667 386.595 64.6133 386.595 65.04C386.595 65.52 386.355 66.1867 385.875 67.04C385.395 67.84 384.862 68.7733 384.275 69.84C383.689 70.9067 383.155 72 382.675 73.12C382.195 74.1867 381.955 75.2 381.955 76.16C381.955 76.96 382.169 77.76 382.595 78.56C383.022 79.3067 383.715 79.68 384.675 79.68C386.115 79.68 388.009 78.64 390.355 76.56C392.702 74.4267 395.075 71.2533 397.475 67.04L398.275 67.84C397.155 70.72 395.715 73.2533 393.955 75.44C392.195 77.6267 390.302 79.3333 388.275 80.56C386.302 81.7867 384.355 82.4 382.435 82.4C380.462 82.4 378.995 81.8133 378.035 80.64C377.129 79.4667 376.675 78.1867 376.675 76.8C376.675 76.48 376.702 76.1333 376.755 75.76C376.809 75.3333 376.862 74.9067 376.915 74.48C374.622 77.5733 372.515 79.8933 370.595 81.44C368.729 82.9867 366.809 83.76 364.835 83.76ZM401.679 102.4C400.346 102.4 399.172 102.027 398.159 101.28C397.146 100.587 396.639 99.5467 396.639 98.16C396.639 96.4533 397.066 94.9333 397.919 93.6C398.772 92.2667 399.919 91.04 401.359 89.92C402.799 88.8 404.452 87.7333 406.319 86.72C408.186 85.7067 410.132 84.6933 412.159 83.68C412.906 81.7067 413.652 79.52 414.399 77.12C415.199 74.6667 415.946 71.9733 416.639 69.04C414.932 71.8133 413.092 74.2133 411.119 76.24C409.199 78.2133 407.146 79.2 404.959 79.2C403.946 79.2 402.932 78.9867 401.919 78.56C400.959 78.08 400.159 77.36 399.519 76.4C398.879 75.44 398.559 74.2133 398.559 72.72C398.559 71.2267 398.799 69.4933 399.279 67.52C399.812 65.5467 400.452 63.6267 401.199 61.76C401.946 59.8933 402.719 58.3467 403.519 57.12C404.319 55.8933 405.012 55.28 405.599 55.28C405.812 55.28 406.186 55.36 406.719 55.52C407.306 55.68 407.839 55.92 408.319 56.24C408.852 56.5067 409.119 56.8 409.119 57.12C408.639 57.8133 408.106 58.8 407.519 60.08C406.932 61.36 406.346 62.8 405.759 64.4C405.226 65.9467 404.772 67.4667 404.399 68.96C404.026 70.4533 403.839 71.7333 403.839 72.8C403.839 73.76 404.052 74.5333 404.479 75.12C404.906 75.7067 405.652 76 406.719 76C407.732 76 408.852 75.52 410.079 74.56C411.359 73.5467 412.612 72.2667 413.839 70.72C415.119 69.1733 416.292 67.52 417.359 65.76C417.519 65.1733 417.652 64.5867 417.759 64C417.919 63.36 418.052 62.72 418.159 62.08C418.319 61.3333 418.692 60.48 419.279 59.52C419.919 58.5067 420.906 58 422.239 58C422.506 58 422.772 58.0267 423.039 58.08C423.306 58.08 423.599 58.1333 423.919 58.24C423.919 59.0933 423.652 60.6933 423.119 63.04C422.639 65.3333 421.919 68.0267 420.959 71.12C420.052 74.2133 418.959 77.3867 417.679 80.64C420.186 79.68 422.639 78.1067 425.039 75.92C427.439 73.68 429.386 70.72 430.879 67.04L431.919 67.84C431.119 70.4 429.892 72.64 428.239 74.56C426.639 76.4267 424.826 78.0533 422.799 79.44C420.772 80.7733 418.772 81.8933 416.799 82.8C415.412 86.2133 413.892 89.4133 412.239 92.4C410.639 95.3867 408.932 97.7867 407.119 99.6C405.359 101.467 403.546 102.4 401.679 102.4ZM401.279 99.84C402.079 99.84 403.412 98.7733 405.279 96.64C407.199 94.56 409.226 90.88 411.359 85.6C409.172 86.7733 407.146 87.92 405.279 89.04C403.412 90.2133 401.919 91.4667 400.799 92.8C399.679 94.1333 399.119 95.68 399.119 97.44C399.119 97.8667 399.279 98.3733 399.599 98.96C399.919 99.5467 400.479 99.84 401.279 99.84ZM440.133 84.08C437.626 84.08 435.626 83.52 434.133 82.4C432.693 81.3333 431.679 80 431.093 78.4C430.453 76.8 430.133 75.2 430.133 73.6C430.133 72 430.346 70.7733 430.773 69.92C431.199 69.0667 431.706 68.4267 432.293 68C432.933 67.5733 433.519 67.2533 434.053 67.04C434.639 66.8267 435.039 66.6133 435.253 66.4C436.853 64.64 438.319 62.8 439.653 60.88C440.986 58.96 442.159 56.9333 443.173 54.8V53.84C443.173 51.8667 443.493 50.48 444.133 49.68C444.826 48.8267 445.546 48.4 446.293 48.4C446.719 48.4 447.039 48.5067 447.253 48.72C447.466 48.9333 447.573 49.1733 447.573 49.44C447.573 49.7067 447.493 50.1333 447.333 50.72C447.173 51.3067 447.093 52.0533 447.093 52.96C447.093 54.72 447.439 56.64 448.133 58.72C448.826 60.7467 449.519 62.9067 450.213 65.2C450.906 67.44 451.253 69.7867 451.253 72.24C451.253 72.9333 451.199 73.6267 451.093 74.32C451.039 74.96 450.933 75.5733 450.773 76.16C452.639 75.84 454.399 75.0133 456.053 73.68C457.706 72.2933 459.306 70.1067 460.853 67.12L461.573 67.92C460.559 70.8533 459.039 73.0933 457.013 74.64C454.986 76.1333 452.773 77.0667 450.373 77.44C449.519 79.7333 448.159 81.4133 446.293 82.48C444.479 83.5467 442.426 84.08 440.133 84.08ZM440.293 81.28C440.933 81.28 441.786 81.0667 442.853 80.64C443.919 80.2133 444.746 79.12 445.333 77.36C443.093 76.9333 441.093 76.0533 439.333 74.72C437.626 73.3867 436.346 72.0533 435.493 70.72C434.319 70.7733 433.733 71.7067 433.733 73.52C433.733 75.44 434.293 77.2267 435.413 78.88C436.586 80.48 438.213 81.28 440.293 81.28ZM445.733 76.08C445.839 75.5467 445.919 74.9867 445.973 74.4C446.026 73.8133 446.053 73.12 446.053 72.32C446.053 69.8133 445.733 67.3333 445.093 64.88C444.506 62.3733 443.999 60.0267 443.573 57.84C442.346 59.8667 441.039 61.8133 439.653 63.68C438.319 65.4933 437.039 67.0133 435.813 68.24C436.613 69.9467 437.839 71.5467 439.493 73.04C441.199 74.5333 443.279 75.5467 445.733 76.08ZM464.911 80.8C464.218 80.8 463.604 80.6133 463.071 80.24C462.591 79.92 462.351 79.3867 462.351 78.64C462.351 78.0533 462.591 77.52 463.071 77.04C463.551 76.5067 464.138 76.1067 464.831 75.84C465.578 75.52 466.298 75.36 466.991 75.36C467.631 75.36 468.138 75.4933 468.511 75.76C468.884 76.0267 469.071 76.5333 469.071 77.28C469.071 77.8133 468.858 78.3467 468.431 78.88C468.058 79.4133 467.551 79.8667 466.911 80.24C466.271 80.6133 465.604 80.8 464.911 80.8ZM484.42 80.8C483.727 80.8 483.114 80.6133 482.58 80.24C482.1 79.92 481.86 79.3867 481.86 78.64C481.86 78.0533 482.1 77.52 482.58 77.04C483.06 76.5067 483.647 76.1067 484.34 75.84C485.087 75.52 485.807 75.36 486.5 75.36C487.14 75.36 487.647 75.4933 488.02 75.76C488.394 76.0267 488.58 76.5333 488.58 77.28C488.58 77.8133 488.367 78.3467 487.94 78.88C487.567 79.4133 487.06 79.8667 486.42 80.24C485.78 80.6133 485.114 80.8 484.42 80.8Z" fill="black" fill-opacity="0.2"/>
<defs>
<linearGradient id="paint0_linear_9_651" x1="374.5" y1="19" x2="374.5" y2="89" gradientUnits="userSpaceOnUse">
<stop stop-color="#ECECEC"/>
<stop offset="0.273009" stop-color="#BFB5B5"/>
<stop offset="0.831095" stop-color="#909090"/>
</linearGradient>
</defs>
</svg>
