<svg width="749" height="108" viewBox="0 0 749 108" fill="none" xmlns="http://www.w3.org/2000/svg">
<path d="M63.7623 69.09L61.2423 62.23C60.9623 61.4833 60.659 61.0167 60.3323 60.83C60.0523 60.6433 59.4457 60.55 58.5123 60.55H46.0523C45.119 60.55 44.4657 60.7133 44.0923 61.04C43.7657 61.3667 43.3223 62.2533 42.7623 63.7L40.7323 69.09C40.5457 69.6033 40.4523 70.0933 40.4523 70.56C40.4523 72.0533 41.3623 72.8 43.1823 72.8C43.649 72.8 44.3023 72.7533 45.1423 72.66C46.029 72.5667 46.6823 72.52 47.1023 72.52C49.0157 72.52 49.9723 73.3367 49.9723 74.97C49.9723 76.51 48.9223 77.28 46.8223 77.28C46.449 77.28 45.9357 77.2333 45.2823 77.14L41.7823 76.65C41.129 76.5567 40.0557 76.51 38.5623 76.51C36.929 76.51 35.7857 76.5567 35.1323 76.65L32.1923 77.07C30.8857 77.2567 29.929 77.35 29.3223 77.35C27.5023 77.35 26.5923 76.58 26.5923 75.04C26.5923 73.4067 27.479 72.59 29.2523 72.59C29.6257 72.59 29.9057 72.6133 30.0923 72.66H31.0023C32.2623 72.66 33.219 72.17 33.8723 71.19C34.1523 70.8167 34.619 69.72 35.2723 67.9L48.2923 32.69C49.039 30.73 50.509 29.75 52.7023 29.75C54.849 29.75 56.2723 30.73 56.9723 32.69L69.5023 67.41C70.2957 69.6033 71.019 71.05 71.6723 71.75C72.3257 72.45 73.259 72.8 74.4723 72.8C74.8457 72.8 75.1257 72.7767 75.3123 72.73C76.619 72.6367 77.2723 72.59 77.2723 72.59C79.0457 72.59 79.9323 73.3367 79.9323 74.83C79.9323 76.4167 79.0457 77.21 77.2723 77.21C76.759 77.21 76.0823 77.1633 75.2423 77.07C72.3023 76.7433 70.109 76.58 68.6623 76.58C66.9357 76.58 64.1357 76.7667 60.2623 77.14C59.2823 77.2333 58.5357 77.28 58.0223 77.28C56.1557 77.28 55.2223 76.4867 55.2223 74.9C55.2223 73.3133 56.249 72.52 58.3023 72.52C58.7223 72.52 59.329 72.5667 60.1223 72.66C60.9623 72.7533 61.5923 72.8 62.0123 72.8C63.5523 72.8 64.3223 72.17 64.3223 70.91C64.3223 70.7233 64.1357 70.1167 63.7623 69.09ZM58.7223 54.81L52.4223 35.49L45.9823 54.81C45.889 55.09 45.8423 55.2533 45.8423 55.3C45.8423 55.72 46.1923 55.93 46.8923 55.93H58.0223C58.5823 55.93 58.8623 55.7433 58.8623 55.37C58.8623 55.2767 58.8157 55.09 58.7223 54.81ZM104.929 35.63C104.929 34.9767 105.162 34.3933 105.629 33.88C104.836 33.1333 103.669 32.76 102.129 32.76C100.122 32.76 98.5356 33.4133 97.3689 34.72C96.2489 35.98 95.6889 37.7533 95.6889 40.04V41.3C95.6889 41.9067 95.9922 42.21 96.5989 42.21H102.059C103.599 42.21 104.369 43.05 104.369 44.73C104.369 46.41 103.599 47.25 102.059 47.25H96.8789C96.0856 47.25 95.6889 47.67 95.6889 48.51V68.11C95.6889 69.8367 95.7122 70.84 95.7589 71.12C95.9922 72.38 96.5756 73.01 97.5089 73.01C97.7422 73.01 98.3256 72.8933 99.2589 72.66C99.9122 72.5667 100.379 72.52 100.659 72.52C102.246 72.52 103.039 73.29 103.039 74.83C103.039 76.4633 102.082 77.28 100.169 77.28C99.3756 77.28 98.1622 77.1867 96.5289 77C94.9422 76.8133 93.7522 76.72 92.9589 76.72C91.5589 76.72 90.2989 76.79 89.1789 76.93C87.3589 77.1633 86.1922 77.28 85.6789 77.28C83.6722 77.28 82.6689 76.4633 82.6689 74.83C82.6689 74.2233 82.9022 73.6867 83.3689 73.22C83.8822 72.7533 84.4656 72.52 85.1189 72.52C85.5856 72.52 86.0989 72.6133 86.6589 72.8C87.2656 72.94 87.8022 73.01 88.2689 73.01C89.1556 73.01 89.7156 72.45 89.9489 71.33C90.1822 70.21 90.3222 67.5033 90.3689 63.21L90.4389 48.51C90.4389 47.67 90.0189 47.25 89.1789 47.25H85.6789C84.0456 47.25 83.2289 46.3867 83.2289 44.66C83.2289 43.0267 84.0689 42.21 85.7489 42.21H89.7389C90.3456 42.21 90.6489 41.9067 90.6489 41.3V40.04C90.6489 36.3533 91.6289 33.53 93.5889 31.57C95.5489 29.61 98.3256 28.63 101.919 28.63C104.859 28.63 107.216 29.2367 108.989 30.45C110.762 31.6167 111.649 33.2033 111.649 35.21C111.649 36.2367 111.322 37.0767 110.669 37.73C110.016 38.3367 109.199 38.64 108.219 38.64C107.286 38.64 106.492 38.36 105.839 37.8C105.232 37.1933 104.929 36.47 104.929 35.63ZM131.604 67.34L131.744 62.86C131.79 60.9467 132.63 59.99 134.264 59.99C135.897 59.99 136.714 61.0633 136.714 63.21C136.714 68.2967 136.06 71.8433 134.754 73.85C132.98 76.5567 130.064 77.91 126.004 77.91C122.27 77.91 119.61 76.72 118.024 74.34C116.857 72.6133 116.274 69.6733 116.274 65.52V48.72C116.274 47.74 115.83 47.25 114.944 47.25H112.704C111.957 47.25 111.327 47.0167 110.814 46.55C110.347 46.0367 110.114 45.43 110.114 44.73C110.114 44.0767 110.347 43.4933 110.814 42.98C111.327 42.4667 111.887 42.21 112.494 42.21H115.224C116.017 42.21 116.414 41.7667 116.414 40.88V33.67C116.414 31.8967 117.324 31.01 119.144 31.01C120.824 31.01 121.664 31.8967 121.664 33.67V41.16C121.664 41.86 122.084 42.21 122.924 42.21H130.554C132.327 42.21 133.214 43.0267 133.214 44.66C133.214 46.3867 132.257 47.25 130.344 47.25H122.644C121.99 47.25 121.664 47.74 121.664 48.72V65.94C121.664 70.84 123.274 73.29 126.494 73.29C129.76 73.29 131.464 71.3067 131.604 67.34ZM174.261 56.42C174.261 58.1933 174.145 59.29 173.911 59.71C173.678 60.0833 173.001 60.27 171.881 60.27H149.621C149.015 60.27 148.618 60.3633 148.431 60.55C148.245 60.69 148.151 60.9467 148.151 61.32C148.151 64.82 149.201 67.7367 151.301 70.07C153.401 72.4033 156.015 73.57 159.141 73.57C161.195 73.57 163.061 73.01 164.741 71.89C166.468 70.77 167.588 69.3467 168.101 67.62L168.731 65.59C169.058 64.47 169.828 63.91 171.041 63.91C172.768 63.91 173.631 64.7967 173.631 66.57C173.631 69.6033 172.091 72.31 169.011 74.69C165.931 77.0233 162.431 78.19 158.511 78.19C153.611 78.19 149.715 76.5567 146.821 73.29C143.928 69.9767 142.481 65.5433 142.481 59.99C142.481 54.2967 144.021 49.6767 147.101 46.13C150.181 42.5833 154.195 40.81 159.141 40.81C163.528 40.81 167.145 42.28 169.991 45.22C172.838 48.16 174.261 51.8933 174.261 56.42ZM148.851 54.6C148.851 55.2533 149.365 55.58 150.391 55.58H167.121C168.101 55.58 168.591 55.2533 168.591 54.6C168.591 52.1267 167.658 49.98 165.791 48.16C163.925 46.34 161.731 45.43 159.211 45.43C156.598 45.43 154.218 46.3867 152.071 48.3C149.925 50.1667 148.851 52.2667 148.851 54.6ZM192.134 44.03V45.92C194.56 42.5133 197.804 40.81 201.864 40.81C205.13 40.81 207.767 41.7433 209.774 43.61C211.827 45.43 212.854 47.7867 212.854 50.68C212.854 52.7333 212.34 54.4133 211.314 55.72C210.287 56.98 208.934 57.61 207.254 57.61C206.18 57.61 205.27 57.2833 204.524 56.63C203.777 55.9767 203.404 55.1833 203.404 54.25C203.404 53.5033 203.684 52.85 204.244 52.29C204.804 51.6833 205.457 51.38 206.204 51.38C206.344 51.38 206.647 51.45 207.114 51.59C207.394 51.03 207.534 50.5167 207.534 50.05C207.534 48.6967 206.927 47.5533 205.714 46.62C204.547 45.6867 203.077 45.22 201.304 45.22C197.664 45.22 195.237 46.8533 194.024 50.12C193.277 52.1267 192.904 55.16 192.904 59.22V63.84C192.904 66.9667 192.927 68.7167 192.974 69.09C193.207 71.75 193.93 73.08 195.144 73.08C195.75 73.08 196.38 72.9867 197.034 72.8C197.547 72.66 197.99 72.59 198.364 72.59C199.857 72.59 200.604 73.3367 200.604 74.83C200.604 76.4633 199.647 77.28 197.734 77.28H197.454C196.754 77.28 195.68 77.1867 194.234 77C192.834 76.86 191.784 76.79 191.084 76.79C189.217 76.79 187.747 76.8367 186.674 76.93L182.754 77.28C180.84 77.28 179.884 76.4633 179.884 74.83C179.884 73.3833 180.77 72.66 182.544 72.66C183.01 72.66 183.36 72.6833 183.594 72.73L184.644 72.94C185.11 73.0333 185.437 73.08 185.624 73.08C186.79 73.08 187.42 72.0067 187.514 69.86L187.654 66.29L187.444 50.4C187.304 47.6467 186.604 46.27 185.344 46.27C184.97 46.27 184.457 46.34 183.804 46.48C183.15 46.62 182.637 46.69 182.264 46.69C180.724 46.69 179.954 45.9433 179.954 44.45C179.954 42.8167 180.957 42 182.964 42C183.43 42 184.13 42.07 185.064 42.21C185.997 42.3033 186.697 42.35 187.164 42.35C187.537 42.35 188.144 42.3033 188.984 42.21C189.357 42.1167 189.8 42.07 190.314 42.07C191.527 42.07 192.134 42.7233 192.134 44.03ZM267.748 77.91C263.922 77.91 261.565 76.2533 260.678 72.94C258.298 76.44 254.565 78.19 249.478 78.19C245.698 78.19 242.665 77.2567 240.378 75.39C238.138 73.5233 237.018 71.0267 237.018 67.9C237.018 64.0267 238.675 61.18 241.988 59.36C243.248 58.66 244.322 58.2167 245.208 58.03C246.142 57.7967 247.985 57.5167 250.738 57.19C254.658 56.77 257.202 56.1867 258.368 55.44C259.582 54.6933 260.188 53.3167 260.188 51.31C260.188 49.3967 259.512 47.9033 258.158 46.83C256.852 45.71 255.008 45.15 252.628 45.15C250.528 45.15 248.568 45.7333 246.748 46.9C246.048 47.3667 245.698 47.8567 245.698 48.37C245.698 48.5567 245.908 48.79 246.328 49.07C246.982 49.5367 247.308 50.33 247.308 51.45C247.308 52.3833 246.958 53.1533 246.258 53.76C245.605 54.3667 244.765 54.67 243.738 54.67C242.525 54.67 241.498 54.25 240.658 53.41C239.865 52.57 239.468 51.5433 239.468 50.33C239.468 47.7167 240.752 45.4767 243.318 43.61C245.932 41.7433 249.082 40.81 252.768 40.81C261.262 40.81 265.508 44.8933 265.508 53.06V67.2C265.508 69.44 265.555 70.77 265.648 71.19C265.928 72.8233 266.722 73.64 268.028 73.64C269.662 73.64 270.478 72.1467 270.478 69.16V65.73C270.478 64.2367 271.202 63.49 272.648 63.49C274.188 63.49 274.958 64.61 274.958 66.85V67.2L274.888 71.19C274.795 75.67 272.415 77.91 267.748 77.91ZM259.978 63.98L260.048 59.01C259.022 59.9433 257.925 60.5967 256.758 60.97C255.638 61.3433 253.608 61.67 250.668 61.95C245.348 62.4633 242.688 64.4233 242.688 67.83C242.688 69.6033 243.318 71.0033 244.578 72.03C245.885 73.0567 247.635 73.57 249.828 73.57C252.955 73.57 255.405 72.73 257.178 71.05C258.998 69.3233 259.932 66.9667 259.978 63.98ZM290.18 47.74L290.25 69.51C290.297 71.89 290.927 73.08 292.14 73.08C292.42 73.08 293.003 72.9633 293.89 72.73C294.45 72.6367 294.823 72.59 295.01 72.59C296.55 72.59 297.32 73.3833 297.32 74.97C297.32 76.51 296.363 77.28 294.45 77.28C293.703 77.28 292.513 77.1867 290.88 77C289.247 76.8133 287.987 76.72 287.1 76.72C286.353 76.72 285.233 76.8133 283.74 77C282.247 77.1867 281.15 77.28 280.45 77.28H280.1C278.14 77.28 277.16 76.44 277.16 74.76C277.16 73.3133 277.953 72.59 279.54 72.59C279.633 72.59 279.797 72.59 280.03 72.59C280.31 72.6367 280.52 72.66 280.66 72.66C281.827 72.8467 282.503 72.94 282.69 72.94C283.53 72.94 284.043 72.59 284.23 71.89C284.463 71.1433 284.603 69.2533 284.65 66.22L284.72 61.32L284.93 50.47L284.86 38.01C284.813 36.61 284.743 35.6767 284.65 35.21C284.323 34.1367 283.67 33.6 282.69 33.6C282.55 33.6 281.943 33.6933 280.87 33.88C280.357 33.9733 279.937 34.02 279.61 34.02C278.023 34.02 277.23 33.2733 277.23 31.78C277.23 30.24 278.163 29.47 280.03 29.47C280.543 29.47 280.987 29.4933 281.36 29.54L283.04 29.75C283.787 29.8433 284.417 29.89 284.93 29.89C285.397 29.89 286.097 29.82 287.03 29.68C287.963 29.4933 288.663 29.4 289.13 29.4C290.203 29.4 290.74 30.0767 290.74 31.43C290.74 31.8967 290.717 32.2467 290.67 32.48C290.343 36.0733 290.18 41.16 290.18 47.74ZM313.882 47.74L313.952 69.51C313.998 71.89 314.628 73.08 315.842 73.08C316.122 73.08 316.705 72.9633 317.592 72.73C318.152 72.6367 318.525 72.59 318.712 72.59C320.252 72.59 321.022 73.3833 321.022 74.97C321.022 76.51 320.065 77.28 318.152 77.28C317.405 77.28 316.215 77.1867 314.582 77C312.948 76.8133 311.688 76.72 310.802 76.72C310.055 76.72 308.935 76.8133 307.442 77C305.948 77.1867 304.852 77.28 304.152 77.28H303.802C301.842 77.28 300.862 76.44 300.862 74.76C300.862 73.3133 301.655 72.59 303.242 72.59C303.335 72.59 303.498 72.59 303.732 72.59C304.012 72.6367 304.222 72.66 304.362 72.66C305.528 72.8467 306.205 72.94 306.392 72.94C307.232 72.94 307.745 72.59 307.932 71.89C308.165 71.1433 308.305 69.2533 308.352 66.22L308.422 61.32L308.632 50.47L308.562 38.01C308.515 36.61 308.445 35.6767 308.352 35.21C308.025 34.1367 307.372 33.6 306.392 33.6C306.252 33.6 305.645 33.6933 304.572 33.88C304.058 33.9733 303.638 34.02 303.312 34.02C301.725 34.02 300.932 33.2733 300.932 31.78C300.932 30.24 301.865 29.47 303.732 29.47C304.245 29.47 304.688 29.4933 305.062 29.54L306.742 29.75C307.488 29.8433 308.118 29.89 308.632 29.89C309.098 29.89 309.798 29.82 310.732 29.68C311.665 29.4933 312.365 29.4 312.832 29.4C313.905 29.4 314.442 30.0767 314.442 31.43C314.442 31.8967 314.418 32.2467 314.372 32.48C314.045 36.0733 313.882 41.16 313.882 47.74ZM365.513 67.34L365.653 62.86C365.7 60.9467 366.54 59.99 368.173 59.99C369.807 59.99 370.623 61.0633 370.623 63.21C370.623 68.2967 369.97 71.8433 368.663 73.85C366.89 76.5567 363.973 77.91 359.913 77.91C356.18 77.91 353.52 76.72 351.933 74.34C350.767 72.6133 350.183 69.6733 350.183 65.52V48.72C350.183 47.74 349.74 47.25 348.853 47.25H346.613C345.867 47.25 345.237 47.0167 344.723 46.55C344.257 46.0367 344.023 45.43 344.023 44.73C344.023 44.0767 344.257 43.4933 344.723 42.98C345.237 42.4667 345.797 42.21 346.403 42.21H349.133C349.927 42.21 350.323 41.7667 350.323 40.88V33.67C350.323 31.8967 351.233 31.01 353.053 31.01C354.733 31.01 355.573 31.8967 355.573 33.67V41.16C355.573 41.86 355.993 42.21 356.833 42.21H364.463C366.237 42.21 367.123 43.0267 367.123 44.66C367.123 46.3867 366.167 47.25 364.253 47.25H356.553C355.9 47.25 355.573 47.74 355.573 48.72V65.94C355.573 70.84 357.183 73.29 360.403 73.29C363.67 73.29 365.373 71.3067 365.513 67.34ZM387.381 31.92L387.101 45.5C388.967 43.7267 390.671 42.5133 392.211 41.86C393.751 41.16 395.571 40.81 397.671 40.81C401.684 40.81 404.904 41.9533 407.331 44.24C409.757 46.5267 410.971 49.5367 410.971 53.27V64.96C410.971 67.7133 410.994 69.23 411.041 69.51C411.227 71.8433 411.834 73.01 412.861 73.01C413.234 73.01 413.771 72.9167 414.471 72.73C414.751 72.6833 415.124 72.66 415.591 72.66C417.317 72.66 418.181 73.43 418.181 74.97C418.181 76.51 417.061 77.28 414.821 77.28C414.214 77.28 413.327 77.21 412.161 77.07C410.201 76.8367 408.614 76.72 407.401 76.72C406.187 76.72 405.254 76.7667 404.601 76.86C402.641 77.14 401.427 77.28 400.961 77.28C400.121 77.28 399.421 77.0467 398.861 76.58C398.301 76.0667 398.021 75.4367 398.021 74.69C398.021 74.0833 398.254 73.57 398.721 73.15C399.234 72.73 399.817 72.52 400.471 72.52C400.984 72.52 401.591 72.6367 402.291 72.87C402.711 73.01 403.107 73.08 403.481 73.08C404.881 73.08 405.604 71.5633 405.651 68.53C405.651 67.97 405.674 66.8733 405.721 65.24L405.791 62.23V58.45C405.791 53.69 405.324 50.4933 404.391 48.86C403.037 46.4333 400.657 45.22 397.251 45.22C393.564 45.22 390.881 46.48 389.201 49C388.034 50.7267 387.427 53.5033 387.381 57.33L387.311 62.37C387.311 62.65 387.287 63.1167 387.241 63.77C387.241 64.3767 387.241 64.82 387.241 65.1C387.241 67.76 387.264 69.3 387.311 69.72C387.544 72.0067 388.221 73.15 389.341 73.15C389.714 73.15 390.227 73.08 390.881 72.94C391.581 72.7533 392.094 72.66 392.421 72.66C393.914 72.66 394.661 73.3833 394.661 74.83C394.661 76.4633 393.634 77.28 391.581 77.28C390.927 77.28 389.947 77.21 388.641 77.07C386.867 76.8833 385.351 76.79 384.091 76.79C383.297 76.79 382.201 76.86 380.801 77C378.934 77.1867 377.744 77.28 377.231 77.28C375.317 77.28 374.361 76.44 374.361 74.76C374.361 73.36 375.247 72.66 377.021 72.66C377.627 72.66 378.071 72.7067 378.351 72.8C379.144 72.94 379.704 73.01 380.031 73.01C380.777 73.01 381.267 72.31 381.501 70.91C381.781 69.4633 381.944 66.5467 381.991 62.16L382.061 49.63C382.061 42.63 381.921 38.22 381.641 36.4C381.361 34.5333 380.707 33.6 379.681 33.6C379.354 33.6 378.864 33.67 378.211 33.81C377.557 33.95 377.044 34.02 376.671 34.02C375.084 34.02 374.291 33.2733 374.291 31.78C374.291 31.1267 374.571 30.5667 375.131 30.1C375.691 29.6333 376.367 29.4 377.161 29.4C377.394 29.4 378.187 29.47 379.541 29.61C380.427 29.7033 381.384 29.75 382.411 29.75C382.831 29.75 383.414 29.7033 384.161 29.61C384.907 29.5167 385.444 29.47 385.771 29.47C386.844 29.47 387.381 30.24 387.381 31.78V31.92ZM434.401 56.7V65.8C434.401 68.1333 434.424 69.51 434.471 69.93C434.704 72.03 435.334 73.08 436.361 73.08C436.594 73.08 437.178 72.9633 438.111 72.73C438.344 72.6367 438.694 72.59 439.161 72.59C440.934 72.59 441.821 73.36 441.821 74.9C441.821 75.5533 441.518 76.1133 440.911 76.58C440.351 77.0467 439.628 77.28 438.741 77.28C437.994 77.28 436.851 77.1867 435.311 77C433.818 76.7667 432.698 76.65 431.951 76.65C430.738 76.65 429.384 76.7433 427.891 76.93C426.071 77.1633 424.858 77.28 424.251 77.28C422.384 77.28 421.451 76.4867 421.451 74.9C421.451 73.36 422.244 72.59 423.831 72.59C424.204 72.59 424.741 72.66 425.441 72.8C426.188 72.94 426.748 73.01 427.121 73.01C428.241 73.01 428.918 71.5167 429.151 68.53C429.151 68.3433 429.151 66.3133 429.151 62.44V56.7C429.151 52.8267 429.151 50.7967 429.151 50.61C428.918 47.67 428.218 46.2 427.051 46.2C426.678 46.2 426.141 46.2933 425.441 46.48C424.788 46.62 424.298 46.69 423.971 46.69C422.291 46.69 421.451 45.9433 421.451 44.45C421.451 42.8633 422.478 42.07 424.531 42.07C425.418 42.07 426.048 42.0933 426.421 42.14C427.914 42.3267 428.871 42.42 429.291 42.42C429.664 42.42 430.224 42.3733 430.971 42.28C431.764 42.14 432.348 42.07 432.721 42.07C434.074 42.07 434.751 42.98 434.751 44.8C434.751 44.9867 434.728 45.2667 434.681 45.64C434.634 46.0133 434.611 46.2933 434.611 46.48C434.564 46.8533 434.518 48.3 434.471 50.82C434.424 52.7333 434.401 54.6933 434.401 56.7ZM430.761 38.36C429.688 38.36 428.754 37.9867 427.961 37.24C427.214 36.4467 426.841 35.5133 426.841 34.44C426.841 33.3667 427.214 32.4567 427.961 31.71C428.754 30.9633 429.688 30.59 430.761 30.59C431.834 30.59 432.744 30.9633 433.491 31.71C434.284 32.4567 434.681 33.3667 434.681 34.44C434.681 35.5133 434.284 36.4467 433.491 37.24C432.744 37.9867 431.834 38.36 430.761 38.36ZM461.601 40.81C464.727 40.81 467.341 41.6267 469.441 43.26V42.98C469.441 41.2533 470.187 40.39 471.681 40.39C473.221 40.39 473.991 41.1367 473.991 42.63C473.991 42.91 473.944 43.61 473.851 44.73C473.664 45.6633 473.571 46.5967 473.571 47.53C473.571 48.09 473.641 48.9067 473.781 49.98C473.967 51.0533 474.061 51.87 474.061 52.43C474.061 54.2033 473.291 55.09 471.751 55.09C470.257 55.09 469.487 54.3433 469.441 52.85L469.371 50.54C469.324 49.14 468.507 47.95 466.921 46.97C465.381 45.9433 463.561 45.43 461.461 45.43C459.314 45.43 457.517 45.99 456.071 47.11C454.624 48.1833 453.901 49.5367 453.901 51.17C453.901 54.1567 455.954 55.93 460.061 56.49L464.121 57.05C472.054 58.1233 476.021 61.4133 476.021 66.92C476.021 70.28 474.737 73.01 472.171 75.11C469.604 77.1633 466.244 78.19 462.091 78.19C458.217 78.19 454.857 77.0933 452.011 74.9C452.057 75.3667 452.081 75.81 452.081 76.23C452.081 77.91 451.287 78.75 449.701 78.75C447.974 78.75 447.111 77.7933 447.111 75.88C447.111 76.2067 447.251 74.9933 447.531 72.24C447.624 71.5867 447.671 70.9333 447.671 70.28C447.671 69.16 447.577 68.11 447.391 67.13C447.204 66.15 447.111 65.38 447.111 64.82C447.111 63.1867 447.857 62.37 449.351 62.37C450.331 62.37 450.937 62.6033 451.171 63.07C451.451 63.5367 451.614 64.7733 451.661 66.78C451.707 68.7867 452.757 70.42 454.811 71.68C456.864 72.94 459.477 73.57 462.651 73.57C464.937 73.57 466.827 72.9867 468.321 71.82C469.814 70.6533 470.561 69.1833 470.561 67.41C470.561 64.2367 468.041 62.3933 463.001 61.88C458.194 61.3667 454.531 60.4333 452.011 59.08C449.491 57.68 448.231 55.2533 448.231 51.8C448.231 48.5333 449.467 45.8967 451.941 43.89C454.414 41.8367 457.634 40.81 461.601 40.81ZM522.234 67.34L522.374 62.86C522.421 60.9467 523.261 59.99 524.894 59.99C526.527 59.99 527.344 61.0633 527.344 63.21C527.344 68.2967 526.691 71.8433 525.384 73.85C523.611 76.5567 520.694 77.91 516.634 77.91C512.901 77.91 510.241 76.72 508.654 74.34C507.487 72.6133 506.904 69.6733 506.904 65.52V48.72C506.904 47.74 506.461 47.25 505.574 47.25H503.334C502.587 47.25 501.957 47.0167 501.444 46.55C500.977 46.0367 500.744 45.43 500.744 44.73C500.744 44.0767 500.977 43.4933 501.444 42.98C501.957 42.4667 502.517 42.21 503.124 42.21H505.854C506.647 42.21 507.044 41.7667 507.044 40.88V33.67C507.044 31.8967 507.954 31.01 509.774 31.01C511.454 31.01 512.294 31.8967 512.294 33.67V41.16C512.294 41.86 512.714 42.21 513.554 42.21H521.184C522.957 42.21 523.844 43.0267 523.844 44.66C523.844 46.3867 522.887 47.25 520.974 47.25H513.274C512.621 47.25 512.294 47.74 512.294 48.72V65.94C512.294 70.84 513.904 73.29 517.124 73.29C520.391 73.29 522.094 71.3067 522.234 67.34ZM544.451 56.7V65.8C544.451 68.1333 544.475 69.51 544.521 69.93C544.755 72.03 545.385 73.08 546.411 73.08C546.645 73.08 547.228 72.9633 548.161 72.73C548.395 72.6367 548.745 72.59 549.211 72.59C550.985 72.59 551.871 73.36 551.871 74.9C551.871 75.5533 551.568 76.1133 550.961 76.58C550.401 77.0467 549.678 77.28 548.791 77.28C548.045 77.28 546.901 77.1867 545.361 77C543.868 76.7667 542.748 76.65 542.001 76.65C540.788 76.65 539.435 76.7433 537.941 76.93C536.121 77.1633 534.908 77.28 534.301 77.28C532.435 77.28 531.501 76.4867 531.501 74.9C531.501 73.36 532.295 72.59 533.881 72.59C534.255 72.59 534.791 72.66 535.491 72.8C536.238 72.94 536.798 73.01 537.171 73.01C538.291 73.01 538.968 71.5167 539.201 68.53C539.201 68.3433 539.201 66.3133 539.201 62.44V56.7C539.201 52.8267 539.201 50.7967 539.201 50.61C538.968 47.67 538.268 46.2 537.101 46.2C536.728 46.2 536.191 46.2933 535.491 46.48C534.838 46.62 534.348 46.69 534.021 46.69C532.341 46.69 531.501 45.9433 531.501 44.45C531.501 42.8633 532.528 42.07 534.581 42.07C535.468 42.07 536.098 42.0933 536.471 42.14C537.965 42.3267 538.921 42.42 539.341 42.42C539.715 42.42 540.275 42.3733 541.021 42.28C541.815 42.14 542.398 42.07 542.771 42.07C544.125 42.07 544.801 42.98 544.801 44.8C544.801 44.9867 544.778 45.2667 544.731 45.64C544.685 46.0133 544.661 46.2933 544.661 46.48C544.615 46.8533 544.568 48.3 544.521 50.82C544.475 52.7333 544.451 54.6933 544.451 56.7ZM540.811 38.36C539.738 38.36 538.805 37.9867 538.011 37.24C537.265 36.4467 536.891 35.5133 536.891 34.44C536.891 33.3667 537.265 32.4567 538.011 31.71C538.805 30.9633 539.738 30.59 540.811 30.59C541.885 30.59 542.795 30.9633 543.541 31.71C544.335 32.4567 544.731 33.3667 544.731 34.44C544.731 35.5133 544.335 36.4467 543.541 37.24C542.795 37.9867 541.885 38.36 540.811 38.36ZM567.381 44.1V46.13C569.061 44.1233 570.648 42.7467 572.141 42C573.635 41.2067 575.501 40.81 577.741 40.81C582.315 40.81 585.675 42.5833 587.821 46.13C589.408 44.17 591.018 42.7933 592.651 42C594.285 41.2067 596.385 40.81 598.951 40.81C601.611 40.81 603.991 41.37 606.091 42.49C608.425 43.75 610.035 45.5233 610.921 47.81C611.528 49.35 611.831 51.7767 611.831 55.09V61.88L611.761 67.13C611.761 69.0433 611.785 70.21 611.831 70.63C612.065 72.31 612.671 73.15 613.651 73.15C613.978 73.15 614.468 73.08 615.121 72.94C615.775 72.8 616.265 72.73 616.591 72.73C618.225 72.73 619.041 73.43 619.041 74.83C619.041 76.4633 618.108 77.28 616.241 77.28C615.541 77.28 614.468 77.1867 613.021 77C611.621 76.86 610.548 76.79 609.801 76.79C609.008 76.79 607.841 76.86 606.301 77C604.808 77.1867 603.665 77.28 602.871 77.28C600.911 77.28 599.931 76.4633 599.931 74.83C599.931 73.43 600.678 72.73 602.171 72.73C602.358 72.73 602.825 72.7767 603.571 72.87C603.851 72.9633 604.225 73.01 604.691 73.01C605.485 73.01 605.975 72.6133 606.161 71.82C606.395 71.0267 606.535 69.0433 606.581 65.87L606.651 61.6V56.98C606.651 53.76 606.395 51.4267 605.881 49.98C605.415 48.4867 604.505 47.32 603.151 46.48C601.798 45.64 600.258 45.22 598.531 45.22C595.218 45.22 592.908 46.3633 591.601 48.65C590.575 50.47 590.061 53.6433 590.061 58.17V63.14C590.061 67.5267 590.155 70.28 590.341 71.4C590.575 72.4733 591.135 73.01 592.021 73.01C592.301 73.01 592.698 72.9633 593.211 72.87C593.771 72.73 594.191 72.66 594.471 72.66C595.125 72.66 595.661 72.8933 596.081 73.36C596.548 73.78 596.781 74.3167 596.781 74.97C596.781 76.51 595.685 77.28 593.491 77.28C592.791 77.28 591.741 77.1867 590.341 77C588.988 76.8133 587.961 76.72 587.261 76.72C586.281 76.72 585.208 76.8133 584.041 77C582.875 77.1867 581.848 77.28 580.961 77.28C579.048 77.28 578.091 76.4867 578.091 74.9C578.091 73.4533 578.791 72.73 580.191 72.73C580.705 72.73 581.101 72.7767 581.381 72.87C582.035 73.01 582.525 73.08 582.851 73.08C583.971 73.08 584.555 71.89 584.601 69.51L584.671 66.22C584.718 65.1933 584.741 64.19 584.741 63.21C584.788 62.37 584.811 61.9267 584.811 61.88V56.07C584.811 52.01 584.251 49.1867 583.131 47.6C582.058 46.0133 580.121 45.22 577.321 45.22C574.241 45.22 571.885 46.34 570.251 48.58C568.898 50.4 568.221 53.5733 568.221 58.1V67.41C568.221 69.2767 568.245 70.3733 568.291 70.7C568.478 72.2867 568.991 73.08 569.831 73.08C570.065 73.08 570.555 72.9867 571.301 72.8C571.395 72.8 571.535 72.7767 571.721 72.73C571.908 72.73 572.071 72.73 572.211 72.73C574.031 72.73 574.941 73.5 574.941 75.04C574.941 76.5333 573.891 77.28 571.791 77.28C570.998 77.28 570.018 77.21 568.851 77.07C567.265 76.8833 565.911 76.79 564.791 76.79C564.231 76.79 563.205 76.86 561.711 77C559.705 77.1867 558.491 77.28 558.071 77.28C556.205 77.28 555.271 76.4867 555.271 74.9C555.271 73.4533 556.158 72.73 557.931 72.73C558.025 72.73 558.165 72.73 558.351 72.73C558.538 72.7767 558.678 72.8 558.771 72.8L560.521 73.15C560.568 73.1967 560.661 73.22 560.801 73.22C562.061 73.22 562.738 72.0767 562.831 69.79L562.971 65.8V55.09C562.971 51.1233 562.855 48.65 562.621 47.67C562.435 46.69 561.875 46.2 560.941 46.2C560.755 46.2 560.101 46.3167 558.981 46.55C558.515 46.6433 558.141 46.69 557.861 46.69C556.135 46.69 555.271 45.9433 555.271 44.45C555.271 42.8633 556.228 42.07 558.141 42.07C558.655 42.07 559.355 42.1167 560.241 42.21C561.128 42.3033 561.898 42.35 562.551 42.35C562.785 42.35 563.041 42.3267 563.321 42.28C563.601 42.28 563.765 42.28 563.811 42.28L565.491 42.07H565.701C566.821 42.07 567.381 42.7467 567.381 44.1ZM655.703 56.42C655.703 58.1933 655.586 59.29 655.353 59.71C655.119 60.0833 654.443 60.27 653.323 60.27H631.063C630.456 60.27 630.059 60.3633 629.873 60.55C629.686 60.69 629.593 60.9467 629.593 61.32C629.593 64.82 630.643 67.7367 632.743 70.07C634.843 72.4033 637.456 73.57 640.583 73.57C642.636 73.57 644.503 73.01 646.183 71.89C647.909 70.77 649.029 69.3467 649.543 67.62L650.173 65.59C650.499 64.47 651.269 63.91 652.483 63.91C654.209 63.91 655.073 64.7967 655.073 66.57C655.073 69.6033 653.533 72.31 650.453 74.69C647.373 77.0233 643.873 78.19 639.953 78.19C635.053 78.19 631.156 76.5567 628.263 73.29C625.369 69.9767 623.923 65.5433 623.923 59.99C623.923 54.2967 625.463 49.6767 628.543 46.13C631.623 42.5833 635.636 40.81 640.583 40.81C644.969 40.81 648.586 42.28 651.433 45.22C654.279 48.16 655.703 51.8933 655.703 56.42ZM630.293 54.6C630.293 55.2533 630.806 55.58 631.833 55.58H648.563C649.543 55.58 650.033 55.2533 650.033 54.6C650.033 52.1267 649.099 49.98 647.233 48.16C645.366 46.34 643.173 45.43 640.653 45.43C638.039 45.43 635.659 46.3867 633.513 48.3C631.366 50.1667 630.293 52.2667 630.293 54.6ZM699.615 78.19C698.402 78.19 697.352 77.77 696.465 76.93C695.625 76.0433 695.205 74.9933 695.205 73.78C695.205 72.5667 695.625 71.54 696.465 70.7C697.352 69.8133 698.402 69.37 699.615 69.37C700.828 69.37 701.855 69.8133 702.695 70.7C703.535 71.54 703.955 72.5667 703.955 73.78C703.955 74.9933 703.535 76.0433 702.695 76.93C701.855 77.77 700.828 78.19 699.615 78.19ZM689.535 41.79C689.535 43.0033 690.142 44.0067 691.355 44.8C691.308 44.6133 691.285 44.38 691.285 44.1C691.285 43.4467 691.518 42.91 691.985 42.49C692.498 42.0233 693.128 41.79 693.875 41.79C695.928 41.79 696.955 42.8167 696.955 44.87C696.955 46.2233 696.418 47.3667 695.345 48.3C694.272 49.1867 692.942 49.63 691.355 49.63C689.302 49.63 687.598 48.9533 686.245 47.6C684.938 46.2 684.285 44.4267 684.285 42.28C684.285 38.36 685.942 35.14 689.255 32.62C692.615 30.0533 696.908 28.77 702.135 28.77C707.315 28.77 711.468 29.9833 714.595 32.41C717.768 34.8367 719.355 38.0333 719.355 42C719.355 46.9933 716.882 50.75 711.935 53.27C711.095 53.69 710.022 54.18 708.715 54.74C705.962 55.9067 704.072 57.0267 703.045 58.1C702.065 59.1733 701.575 60.5967 701.575 62.37C701.575 63.6767 701.458 64.5633 701.225 65.03C700.852 65.73 700.105 66.08 698.985 66.08C697.025 66.08 696.045 64.8667 696.045 62.44C696.045 60.2 696.605 58.2867 697.725 56.7C699.125 54.7867 701.692 52.8033 705.425 50.75C708.785 48.93 710.955 47.46 711.935 46.34C712.915 45.22 713.405 43.7033 713.405 41.79C713.405 39.2233 712.355 37.17 710.255 35.63C708.155 34.0433 705.378 33.25 701.925 33.25C698.425 33.25 695.485 34.09 693.105 35.77C690.725 37.4033 689.535 39.41 689.535 41.79Z" fill="url(#paint0_linear_9_648)"/>
<path d="M63.7623 69.09L61.2423 62.23C60.9623 61.4833 60.659 61.0167 60.3323 60.83C60.0523 60.6433 59.4457 60.55 58.5123 60.55H46.0523C45.119 60.55 44.4657 60.7133 44.0923 61.04C43.7657 61.3667 43.3223 62.2533 42.7623 63.7L40.7323 69.09C40.5457 69.6033 40.4523 70.0933 40.4523 70.56C40.4523 72.0533 41.3623 72.8 43.1823 72.8C43.649 72.8 44.3023 72.7533 45.1423 72.66C46.029 72.5667 46.6823 72.52 47.1023 72.52C49.0157 72.52 49.9723 73.3367 49.9723 74.97C49.9723 76.51 48.9223 77.28 46.8223 77.28C46.449 77.28 45.9357 77.2333 45.2823 77.14L41.7823 76.65C41.129 76.5567 40.0557 76.51 38.5623 76.51C36.929 76.51 35.7857 76.5567 35.1323 76.65L32.1923 77.07C30.8857 77.2567 29.929 77.35 29.3223 77.35C27.5023 77.35 26.5923 76.58 26.5923 75.04C26.5923 73.4067 27.479 72.59 29.2523 72.59C29.6257 72.59 29.9057 72.6133 30.0923 72.66H31.0023C32.2623 72.66 33.219 72.17 33.8723 71.19C34.1523 70.8167 34.619 69.72 35.2723 67.9L48.2923 32.69C49.039 30.73 50.509 29.75 52.7023 29.75C54.849 29.75 56.2723 30.73 56.9723 32.69L69.5023 67.41C70.2957 69.6033 71.019 71.05 71.6723 71.75C72.3257 72.45 73.259 72.8 74.4723 72.8C74.8457 72.8 75.1257 72.7767 75.3123 72.73C76.619 72.6367 77.2723 72.59 77.2723 72.59C79.0457 72.59 79.9323 73.3367 79.9323 74.83C79.9323 76.4167 79.0457 77.21 77.2723 77.21C76.759 77.21 76.0823 77.1633 75.2423 77.07C72.3023 76.7433 70.109 76.58 68.6623 76.58C66.9357 76.58 64.1357 76.7667 60.2623 77.14C59.2823 77.2333 58.5357 77.28 58.0223 77.28C56.1557 77.28 55.2223 76.4867 55.2223 74.9C55.2223 73.3133 56.249 72.52 58.3023 72.52C58.7223 72.52 59.329 72.5667 60.1223 72.66C60.9623 72.7533 61.5923 72.8 62.0123 72.8C63.5523 72.8 64.3223 72.17 64.3223 70.91C64.3223 70.7233 64.1357 70.1167 63.7623 69.09ZM58.7223 54.81L52.4223 35.49L45.9823 54.81C45.889 55.09 45.8423 55.2533 45.8423 55.3C45.8423 55.72 46.1923 55.93 46.8923 55.93H58.0223C58.5823 55.93 58.8623 55.7433 58.8623 55.37C58.8623 55.2767 58.8157 55.09 58.7223 54.81ZM104.929 35.63C104.929 34.9767 105.162 34.3933 105.629 33.88C104.836 33.1333 103.669 32.76 102.129 32.76C100.122 32.76 98.5356 33.4133 97.3689 34.72C96.2489 35.98 95.6889 37.7533 95.6889 40.04V41.3C95.6889 41.9067 95.9922 42.21 96.5989 42.21H102.059C103.599 42.21 104.369 43.05 104.369 44.73C104.369 46.41 103.599 47.25 102.059 47.25H96.8789C96.0856 47.25 95.6889 47.67 95.6889 48.51V68.11C95.6889 69.8367 95.7122 70.84 95.7589 71.12C95.9922 72.38 96.5756 73.01 97.5089 73.01C97.7422 73.01 98.3256 72.8933 99.2589 72.66C99.9122 72.5667 100.379 72.52 100.659 72.52C102.246 72.52 103.039 73.29 103.039 74.83C103.039 76.4633 102.082 77.28 100.169 77.28C99.3756 77.28 98.1622 77.1867 96.5289 77C94.9422 76.8133 93.7522 76.72 92.9589 76.72C91.5589 76.72 90.2989 76.79 89.1789 76.93C87.3589 77.1633 86.1922 77.28 85.6789 77.28C83.6722 77.28 82.6689 76.4633 82.6689 74.83C82.6689 74.2233 82.9022 73.6867 83.3689 73.22C83.8822 72.7533 84.4656 72.52 85.1189 72.52C85.5856 72.52 86.0989 72.6133 86.6589 72.8C87.2656 72.94 87.8022 73.01 88.2689 73.01C89.1556 73.01 89.7156 72.45 89.9489 71.33C90.1822 70.21 90.3222 67.5033 90.3689 63.21L90.4389 48.51C90.4389 47.67 90.0189 47.25 89.1789 47.25H85.6789C84.0456 47.25 83.2289 46.3867 83.2289 44.66C83.2289 43.0267 84.0689 42.21 85.7489 42.21H89.7389C90.3456 42.21 90.6489 41.9067 90.6489 41.3V40.04C90.6489 36.3533 91.6289 33.53 93.5889 31.57C95.5489 29.61 98.3256 28.63 101.919 28.63C104.859 28.63 107.216 29.2367 108.989 30.45C110.762 31.6167 111.649 33.2033 111.649 35.21C111.649 36.2367 111.322 37.0767 110.669 37.73C110.016 38.3367 109.199 38.64 108.219 38.64C107.286 38.64 106.492 38.36 105.839 37.8C105.232 37.1933 104.929 36.47 104.929 35.63ZM131.604 67.34L131.744 62.86C131.79 60.9467 132.63 59.99 134.264 59.99C135.897 59.99 136.714 61.0633 136.714 63.21C136.714 68.2967 136.06 71.8433 134.754 73.85C132.98 76.5567 130.064 77.91 126.004 77.91C122.27 77.91 119.61 76.72 118.024 74.34C116.857 72.6133 116.274 69.6733 116.274 65.52V48.72C116.274 47.74 115.83 47.25 114.944 47.25H112.704C111.957 47.25 111.327 47.0167 110.814 46.55C110.347 46.0367 110.114 45.43 110.114 44.73C110.114 44.0767 110.347 43.4933 110.814 42.98C111.327 42.4667 111.887 42.21 112.494 42.21H115.224C116.017 42.21 116.414 41.7667 116.414 40.88V33.67C116.414 31.8967 117.324 31.01 119.144 31.01C120.824 31.01 121.664 31.8967 121.664 33.67V41.16C121.664 41.86 122.084 42.21 122.924 42.21H130.554C132.327 42.21 133.214 43.0267 133.214 44.66C133.214 46.3867 132.257 47.25 130.344 47.25H122.644C121.99 47.25 121.664 47.74 121.664 48.72V65.94C121.664 70.84 123.274 73.29 126.494 73.29C129.76 73.29 131.464 71.3067 131.604 67.34ZM174.261 56.42C174.261 58.1933 174.145 59.29 173.911 59.71C173.678 60.0833 173.001 60.27 171.881 60.27H149.621C149.015 60.27 148.618 60.3633 148.431 60.55C148.245 60.69 148.151 60.9467 148.151 61.32C148.151 64.82 149.201 67.7367 151.301 70.07C153.401 72.4033 156.015 73.57 159.141 73.57C161.195 73.57 163.061 73.01 164.741 71.89C166.468 70.77 167.588 69.3467 168.101 67.62L168.731 65.59C169.058 64.47 169.828 63.91 171.041 63.91C172.768 63.91 173.631 64.7967 173.631 66.57C173.631 69.6033 172.091 72.31 169.011 74.69C165.931 77.0233 162.431 78.19 158.511 78.19C153.611 78.19 149.715 76.5567 146.821 73.29C143.928 69.9767 142.481 65.5433 142.481 59.99C142.481 54.2967 144.021 49.6767 147.101 46.13C150.181 42.5833 154.195 40.81 159.141 40.81C163.528 40.81 167.145 42.28 169.991 45.22C172.838 48.16 174.261 51.8933 174.261 56.42ZM148.851 54.6C148.851 55.2533 149.365 55.58 150.391 55.58H167.121C168.101 55.58 168.591 55.2533 168.591 54.6C168.591 52.1267 167.658 49.98 165.791 48.16C163.925 46.34 161.731 45.43 159.211 45.43C156.598 45.43 154.218 46.3867 152.071 48.3C149.925 50.1667 148.851 52.2667 148.851 54.6ZM192.134 44.03V45.92C194.56 42.5133 197.804 40.81 201.864 40.81C205.13 40.81 207.767 41.7433 209.774 43.61C211.827 45.43 212.854 47.7867 212.854 50.68C212.854 52.7333 212.34 54.4133 211.314 55.72C210.287 56.98 208.934 57.61 207.254 57.61C206.18 57.61 205.27 57.2833 204.524 56.63C203.777 55.9767 203.404 55.1833 203.404 54.25C203.404 53.5033 203.684 52.85 204.244 52.29C204.804 51.6833 205.457 51.38 206.204 51.38C206.344 51.38 206.647 51.45 207.114 51.59C207.394 51.03 207.534 50.5167 207.534 50.05C207.534 48.6967 206.927 47.5533 205.714 46.62C204.547 45.6867 203.077 45.22 201.304 45.22C197.664 45.22 195.237 46.8533 194.024 50.12C193.277 52.1267 192.904 55.16 192.904 59.22V63.84C192.904 66.9667 192.927 68.7167 192.974 69.09C193.207 71.75 193.93 73.08 195.144 73.08C195.75 73.08 196.38 72.9867 197.034 72.8C197.547 72.66 197.99 72.59 198.364 72.59C199.857 72.59 200.604 73.3367 200.604 74.83C200.604 76.4633 199.647 77.28 197.734 77.28H197.454C196.754 77.28 195.68 77.1867 194.234 77C192.834 76.86 191.784 76.79 191.084 76.79C189.217 76.79 187.747 76.8367 186.674 76.93L182.754 77.28C180.84 77.28 179.884 76.4633 179.884 74.83C179.884 73.3833 180.77 72.66 182.544 72.66C183.01 72.66 183.36 72.6833 183.594 72.73L184.644 72.94C185.11 73.0333 185.437 73.08 185.624 73.08C186.79 73.08 187.42 72.0067 187.514 69.86L187.654 66.29L187.444 50.4C187.304 47.6467 186.604 46.27 185.344 46.27C184.97 46.27 184.457 46.34 183.804 46.48C183.15 46.62 182.637 46.69 182.264 46.69C180.724 46.69 179.954 45.9433 179.954 44.45C179.954 42.8167 180.957 42 182.964 42C183.43 42 184.13 42.07 185.064 42.21C185.997 42.3033 186.697 42.35 187.164 42.35C187.537 42.35 188.144 42.3033 188.984 42.21C189.357 42.1167 189.8 42.07 190.314 42.07C191.527 42.07 192.134 42.7233 192.134 44.03ZM267.748 77.91C263.922 77.91 261.565 76.2533 260.678 72.94C258.298 76.44 254.565 78.19 249.478 78.19C245.698 78.19 242.665 77.2567 240.378 75.39C238.138 73.5233 237.018 71.0267 237.018 67.9C237.018 64.0267 238.675 61.18 241.988 59.36C243.248 58.66 244.322 58.2167 245.208 58.03C246.142 57.7967 247.985 57.5167 250.738 57.19C254.658 56.77 257.202 56.1867 258.368 55.44C259.582 54.6933 260.188 53.3167 260.188 51.31C260.188 49.3967 259.512 47.9033 258.158 46.83C256.852 45.71 255.008 45.15 252.628 45.15C250.528 45.15 248.568 45.7333 246.748 46.9C246.048 47.3667 245.698 47.8567 245.698 48.37C245.698 48.5567 245.908 48.79 246.328 49.07C246.982 49.5367 247.308 50.33 247.308 51.45C247.308 52.3833 246.958 53.1533 246.258 53.76C245.605 54.3667 244.765 54.67 243.738 54.67C242.525 54.67 241.498 54.25 240.658 53.41C239.865 52.57 239.468 51.5433 239.468 50.33C239.468 47.7167 240.752 45.4767 243.318 43.61C245.932 41.7433 249.082 40.81 252.768 40.81C261.262 40.81 265.508 44.8933 265.508 53.06V67.2C265.508 69.44 265.555 70.77 265.648 71.19C265.928 72.8233 266.722 73.64 268.028 73.64C269.662 73.64 270.478 72.1467 270.478 69.16V65.73C270.478 64.2367 271.202 63.49 272.648 63.49C274.188 63.49 274.958 64.61 274.958 66.85V67.2L274.888 71.19C274.795 75.67 272.415 77.91 267.748 77.91ZM259.978 63.98L260.048 59.01C259.022 59.9433 257.925 60.5967 256.758 60.97C255.638 61.3433 253.608 61.67 250.668 61.95C245.348 62.4633 242.688 64.4233 242.688 67.83C242.688 69.6033 243.318 71.0033 244.578 72.03C245.885 73.0567 247.635 73.57 249.828 73.57C252.955 73.57 255.405 72.73 257.178 71.05C258.998 69.3233 259.932 66.9667 259.978 63.98ZM290.18 47.74L290.25 69.51C290.297 71.89 290.927 73.08 292.14 73.08C292.42 73.08 293.003 72.9633 293.89 72.73C294.45 72.6367 294.823 72.59 295.01 72.59C296.55 72.59 297.32 73.3833 297.32 74.97C297.32 76.51 296.363 77.28 294.45 77.28C293.703 77.28 292.513 77.1867 290.88 77C289.247 76.8133 287.987 76.72 287.1 76.72C286.353 76.72 285.233 76.8133 283.74 77C282.247 77.1867 281.15 77.28 280.45 77.28H280.1C278.14 77.28 277.16 76.44 277.16 74.76C277.16 73.3133 277.953 72.59 279.54 72.59C279.633 72.59 279.797 72.59 280.03 72.59C280.31 72.6367 280.52 72.66 280.66 72.66C281.827 72.8467 282.503 72.94 282.69 72.94C283.53 72.94 284.043 72.59 284.23 71.89C284.463 71.1433 284.603 69.2533 284.65 66.22L284.72 61.32L284.93 50.47L284.86 38.01C284.813 36.61 284.743 35.6767 284.65 35.21C284.323 34.1367 283.67 33.6 282.69 33.6C282.55 33.6 281.943 33.6933 280.87 33.88C280.357 33.9733 279.937 34.02 279.61 34.02C278.023 34.02 277.23 33.2733 277.23 31.78C277.23 30.24 278.163 29.47 280.03 29.47C280.543 29.47 280.987 29.4933 281.36 29.54L283.04 29.75C283.787 29.8433 284.417 29.89 284.93 29.89C285.397 29.89 286.097 29.82 287.03 29.68C287.963 29.4933 288.663 29.4 289.13 29.4C290.203 29.4 290.74 30.0767 290.74 31.43C290.74 31.8967 290.717 32.2467 290.67 32.48C290.343 36.0733 290.18 41.16 290.18 47.74ZM313.882 47.74L313.952 69.51C313.998 71.89 314.628 73.08 315.842 73.08C316.122 73.08 316.705 72.9633 317.592 72.73C318.152 72.6367 318.525 72.59 318.712 72.59C320.252 72.59 321.022 73.3833 321.022 74.97C321.022 76.51 320.065 77.28 318.152 77.28C317.405 77.28 316.215 77.1867 314.582 77C312.948 76.8133 311.688 76.72 310.802 76.72C310.055 76.72 308.935 76.8133 307.442 77C305.948 77.1867 304.852 77.28 304.152 77.28H303.802C301.842 77.28 300.862 76.44 300.862 74.76C300.862 73.3133 301.655 72.59 303.242 72.59C303.335 72.59 303.498 72.59 303.732 72.59C304.012 72.6367 304.222 72.66 304.362 72.66C305.528 72.8467 306.205 72.94 306.392 72.94C307.232 72.94 307.745 72.59 307.932 71.89C308.165 71.1433 308.305 69.2533 308.352 66.22L308.422 61.32L308.632 50.47L308.562 38.01C308.515 36.61 308.445 35.6767 308.352 35.21C308.025 34.1367 307.372 33.6 306.392 33.6C306.252 33.6 305.645 33.6933 304.572 33.88C304.058 33.9733 303.638 34.02 303.312 34.02C301.725 34.02 300.932 33.2733 300.932 31.78C300.932 30.24 301.865 29.47 303.732 29.47C304.245 29.47 304.688 29.4933 305.062 29.54L306.742 29.75C307.488 29.8433 308.118 29.89 308.632 29.89C309.098 29.89 309.798 29.82 310.732 29.68C311.665 29.4933 312.365 29.4 312.832 29.4C313.905 29.4 314.442 30.0767 314.442 31.43C314.442 31.8967 314.418 32.2467 314.372 32.48C314.045 36.0733 313.882 41.16 313.882 47.74ZM365.513 67.34L365.653 62.86C365.7 60.9467 366.54 59.99 368.173 59.99C369.807 59.99 370.623 61.0633 370.623 63.21C370.623 68.2967 369.97 71.8433 368.663 73.85C366.89 76.5567 363.973 77.91 359.913 77.91C356.18 77.91 353.52 76.72 351.933 74.34C350.767 72.6133 350.183 69.6733 350.183 65.52V48.72C350.183 47.74 349.74 47.25 348.853 47.25H346.613C345.867 47.25 345.237 47.0167 344.723 46.55C344.257 46.0367 344.023 45.43 344.023 44.73C344.023 44.0767 344.257 43.4933 344.723 42.98C345.237 42.4667 345.797 42.21 346.403 42.21H349.133C349.927 42.21 350.323 41.7667 350.323 40.88V33.67C350.323 31.8967 351.233 31.01 353.053 31.01C354.733 31.01 355.573 31.8967 355.573 33.67V41.16C355.573 41.86 355.993 42.21 356.833 42.21H364.463C366.237 42.21 367.123 43.0267 367.123 44.66C367.123 46.3867 366.167 47.25 364.253 47.25H356.553C355.9 47.25 355.573 47.74 355.573 48.72V65.94C355.573 70.84 357.183 73.29 360.403 73.29C363.67 73.29 365.373 71.3067 365.513 67.34ZM387.381 31.92L387.101 45.5C388.967 43.7267 390.671 42.5133 392.211 41.86C393.751 41.16 395.571 40.81 397.671 40.81C401.684 40.81 404.904 41.9533 407.331 44.24C409.757 46.5267 410.971 49.5367 410.971 53.27V64.96C410.971 67.7133 410.994 69.23 411.041 69.51C411.227 71.8433 411.834 73.01 412.861 73.01C413.234 73.01 413.771 72.9167 414.471 72.73C414.751 72.6833 415.124 72.66 415.591 72.66C417.317 72.66 418.181 73.43 418.181 74.97C418.181 76.51 417.061 77.28 414.821 77.28C414.214 77.28 413.327 77.21 412.161 77.07C410.201 76.8367 408.614 76.72 407.401 76.72C406.187 76.72 405.254 76.7667 404.601 76.86C402.641 77.14 401.427 77.28 400.961 77.28C400.121 77.28 399.421 77.0467 398.861 76.58C398.301 76.0667 398.021 75.4367 398.021 74.69C398.021 74.0833 398.254 73.57 398.721 73.15C399.234 72.73 399.817 72.52 400.471 72.52C400.984 72.52 401.591 72.6367 402.291 72.87C402.711 73.01 403.107 73.08 403.481 73.08C404.881 73.08 405.604 71.5633 405.651 68.53C405.651 67.97 405.674 66.8733 405.721 65.24L405.791 62.23V58.45C405.791 53.69 405.324 50.4933 404.391 48.86C403.037 46.4333 400.657 45.22 397.251 45.22C393.564 45.22 390.881 46.48 389.201 49C388.034 50.7267 387.427 53.5033 387.381 57.33L387.311 62.37C387.311 62.65 387.287 63.1167 387.241 63.77C387.241 64.3767 387.241 64.82 387.241 65.1C387.241 67.76 387.264 69.3 387.311 69.72C387.544 72.0067 388.221 73.15 389.341 73.15C389.714 73.15 390.227 73.08 390.881 72.94C391.581 72.7533 392.094 72.66 392.421 72.66C393.914 72.66 394.661 73.3833 394.661 74.83C394.661 76.4633 393.634 77.28 391.581 77.28C390.927 77.28 389.947 77.21 388.641 77.07C386.867 76.8833 385.351 76.79 384.091 76.79C383.297 76.79 382.201 76.86 380.801 77C378.934 77.1867 377.744 77.28 377.231 77.28C375.317 77.28 374.361 76.44 374.361 74.76C374.361 73.36 375.247 72.66 377.021 72.66C377.627 72.66 378.071 72.7067 378.351 72.8C379.144 72.94 379.704 73.01 380.031 73.01C380.777 73.01 381.267 72.31 381.501 70.91C381.781 69.4633 381.944 66.5467 381.991 62.16L382.061 49.63C382.061 42.63 381.921 38.22 381.641 36.4C381.361 34.5333 380.707 33.6 379.681 33.6C379.354 33.6 378.864 33.67 378.211 33.81C377.557 33.95 377.044 34.02 376.671 34.02C375.084 34.02 374.291 33.2733 374.291 31.78C374.291 31.1267 374.571 30.5667 375.131 30.1C375.691 29.6333 376.367 29.4 377.161 29.4C377.394 29.4 378.187 29.47 379.541 29.61C380.427 29.7033 381.384 29.75 382.411 29.75C382.831 29.75 383.414 29.7033 384.161 29.61C384.907 29.5167 385.444 29.47 385.771 29.47C386.844 29.47 387.381 30.24 387.381 31.78V31.92ZM434.401 56.7V65.8C434.401 68.1333 434.424 69.51 434.471 69.93C434.704 72.03 435.334 73.08 436.361 73.08C436.594 73.08 437.178 72.9633 438.111 72.73C438.344 72.6367 438.694 72.59 439.161 72.59C440.934 72.59 441.821 73.36 441.821 74.9C441.821 75.5533 441.518 76.1133 440.911 76.58C440.351 77.0467 439.628 77.28 438.741 77.28C437.994 77.28 436.851 77.1867 435.311 77C433.818 76.7667 432.698 76.65 431.951 76.65C430.738 76.65 429.384 76.7433 427.891 76.93C426.071 77.1633 424.858 77.28 424.251 77.28C422.384 77.28 421.451 76.4867 421.451 74.9C421.451 73.36 422.244 72.59 423.831 72.59C424.204 72.59 424.741 72.66 425.441 72.8C426.188 72.94 426.748 73.01 427.121 73.01C428.241 73.01 428.918 71.5167 429.151 68.53C429.151 68.3433 429.151 66.3133 429.151 62.44V56.7C429.151 52.8267 429.151 50.7967 429.151 50.61C428.918 47.67 428.218 46.2 427.051 46.2C426.678 46.2 426.141 46.2933 425.441 46.48C424.788 46.62 424.298 46.69 423.971 46.69C422.291 46.69 421.451 45.9433 421.451 44.45C421.451 42.8633 422.478 42.07 424.531 42.07C425.418 42.07 426.048 42.0933 426.421 42.14C427.914 42.3267 428.871 42.42 429.291 42.42C429.664 42.42 430.224 42.3733 430.971 42.28C431.764 42.14 432.348 42.07 432.721 42.07C434.074 42.07 434.751 42.98 434.751 44.8C434.751 44.9867 434.728 45.2667 434.681 45.64C434.634 46.0133 434.611 46.2933 434.611 46.48C434.564 46.8533 434.518 48.3 434.471 50.82C434.424 52.7333 434.401 54.6933 434.401 56.7ZM430.761 38.36C429.688 38.36 428.754 37.9867 427.961 37.24C427.214 36.4467 426.841 35.5133 426.841 34.44C426.841 33.3667 427.214 32.4567 427.961 31.71C428.754 30.9633 429.688 30.59 430.761 30.59C431.834 30.59 432.744 30.9633 433.491 31.71C434.284 32.4567 434.681 33.3667 434.681 34.44C434.681 35.5133 434.284 36.4467 433.491 37.24C432.744 37.9867 431.834 38.36 430.761 38.36ZM461.601 40.81C464.727 40.81 467.341 41.6267 469.441 43.26V42.98C469.441 41.2533 470.187 40.39 471.681 40.39C473.221 40.39 473.991 41.1367 473.991 42.63C473.991 42.91 473.944 43.61 473.851 44.73C473.664 45.6633 473.571 46.5967 473.571 47.53C473.571 48.09 473.641 48.9067 473.781 49.98C473.967 51.0533 474.061 51.87 474.061 52.43C474.061 54.2033 473.291 55.09 471.751 55.09C470.257 55.09 469.487 54.3433 469.441 52.85L469.371 50.54C469.324 49.14 468.507 47.95 466.921 46.97C465.381 45.9433 463.561 45.43 461.461 45.43C459.314 45.43 457.517 45.99 456.071 47.11C454.624 48.1833 453.901 49.5367 453.901 51.17C453.901 54.1567 455.954 55.93 460.061 56.49L464.121 57.05C472.054 58.1233 476.021 61.4133 476.021 66.92C476.021 70.28 474.737 73.01 472.171 75.11C469.604 77.1633 466.244 78.19 462.091 78.19C458.217 78.19 454.857 77.0933 452.011 74.9C452.057 75.3667 452.081 75.81 452.081 76.23C452.081 77.91 451.287 78.75 449.701 78.75C447.974 78.75 447.111 77.7933 447.111 75.88C447.111 76.2067 447.251 74.9933 447.531 72.24C447.624 71.5867 447.671 70.9333 447.671 70.28C447.671 69.16 447.577 68.11 447.391 67.13C447.204 66.15 447.111 65.38 447.111 64.82C447.111 63.1867 447.857 62.37 449.351 62.37C450.331 62.37 450.937 62.6033 451.171 63.07C451.451 63.5367 451.614 64.7733 451.661 66.78C451.707 68.7867 452.757 70.42 454.811 71.68C456.864 72.94 459.477 73.57 462.651 73.57C464.937 73.57 466.827 72.9867 468.321 71.82C469.814 70.6533 470.561 69.1833 470.561 67.41C470.561 64.2367 468.041 62.3933 463.001 61.88C458.194 61.3667 454.531 60.4333 452.011 59.08C449.491 57.68 448.231 55.2533 448.231 51.8C448.231 48.5333 449.467 45.8967 451.941 43.89C454.414 41.8367 457.634 40.81 461.601 40.81ZM522.234 67.34L522.374 62.86C522.421 60.9467 523.261 59.99 524.894 59.99C526.527 59.99 527.344 61.0633 527.344 63.21C527.344 68.2967 526.691 71.8433 525.384 73.85C523.611 76.5567 520.694 77.91 516.634 77.91C512.901 77.91 510.241 76.72 508.654 74.34C507.487 72.6133 506.904 69.6733 506.904 65.52V48.72C506.904 47.74 506.461 47.25 505.574 47.25H503.334C502.587 47.25 501.957 47.0167 501.444 46.55C500.977 46.0367 500.744 45.43 500.744 44.73C500.744 44.0767 500.977 43.4933 501.444 42.98C501.957 42.4667 502.517 42.21 503.124 42.21H505.854C506.647 42.21 507.044 41.7667 507.044 40.88V33.67C507.044 31.8967 507.954 31.01 509.774 31.01C511.454 31.01 512.294 31.8967 512.294 33.67V41.16C512.294 41.86 512.714 42.21 513.554 42.21H521.184C522.957 42.21 523.844 43.0267 523.844 44.66C523.844 46.3867 522.887 47.25 520.974 47.25H513.274C512.621 47.25 512.294 47.74 512.294 48.72V65.94C512.294 70.84 513.904 73.29 517.124 73.29C520.391 73.29 522.094 71.3067 522.234 67.34ZM544.451 56.7V65.8C544.451 68.1333 544.475 69.51 544.521 69.93C544.755 72.03 545.385 73.08 546.411 73.08C546.645 73.08 547.228 72.9633 548.161 72.73C548.395 72.6367 548.745 72.59 549.211 72.59C550.985 72.59 551.871 73.36 551.871 74.9C551.871 75.5533 551.568 76.1133 550.961 76.58C550.401 77.0467 549.678 77.28 548.791 77.28C548.045 77.28 546.901 77.1867 545.361 77C543.868 76.7667 542.748 76.65 542.001 76.65C540.788 76.65 539.435 76.7433 537.941 76.93C536.121 77.1633 534.908 77.28 534.301 77.28C532.435 77.28 531.501 76.4867 531.501 74.9C531.501 73.36 532.295 72.59 533.881 72.59C534.255 72.59 534.791 72.66 535.491 72.8C536.238 72.94 536.798 73.01 537.171 73.01C538.291 73.01 538.968 71.5167 539.201 68.53C539.201 68.3433 539.201 66.3133 539.201 62.44V56.7C539.201 52.8267 539.201 50.7967 539.201 50.61C538.968 47.67 538.268 46.2 537.101 46.2C536.728 46.2 536.191 46.2933 535.491 46.48C534.838 46.62 534.348 46.69 534.021 46.69C532.341 46.69 531.501 45.9433 531.501 44.45C531.501 42.8633 532.528 42.07 534.581 42.07C535.468 42.07 536.098 42.0933 536.471 42.14C537.965 42.3267 538.921 42.42 539.341 42.42C539.715 42.42 540.275 42.3733 541.021 42.28C541.815 42.14 542.398 42.07 542.771 42.07C544.125 42.07 544.801 42.98 544.801 44.8C544.801 44.9867 544.778 45.2667 544.731 45.64C544.685 46.0133 544.661 46.2933 544.661 46.48C544.615 46.8533 544.568 48.3 544.521 50.82C544.475 52.7333 544.451 54.6933 544.451 56.7ZM540.811 38.36C539.738 38.36 538.805 37.9867 538.011 37.24C537.265 36.4467 536.891 35.5133 536.891 34.44C536.891 33.3667 537.265 32.4567 538.011 31.71C538.805 30.9633 539.738 30.59 540.811 30.59C541.885 30.59 542.795 30.9633 543.541 31.71C544.335 32.4567 544.731 33.3667 544.731 34.44C544.731 35.5133 544.335 36.4467 543.541 37.24C542.795 37.9867 541.885 38.36 540.811 38.36ZM567.381 44.1V46.13C569.061 44.1233 570.648 42.7467 572.141 42C573.635 41.2067 575.501 40.81 577.741 40.81C582.315 40.81 585.675 42.5833 587.821 46.13C589.408 44.17 591.018 42.7933 592.651 42C594.285 41.2067 596.385 40.81 598.951 40.81C601.611 40.81 603.991 41.37 606.091 42.49C608.425 43.75 610.035 45.5233 610.921 47.81C611.528 49.35 611.831 51.7767 611.831 55.09V61.88L611.761 67.13C611.761 69.0433 611.785 70.21 611.831 70.63C612.065 72.31 612.671 73.15 613.651 73.15C613.978 73.15 614.468 73.08 615.121 72.94C615.775 72.8 616.265 72.73 616.591 72.73C618.225 72.73 619.041 73.43 619.041 74.83C619.041 76.4633 618.108 77.28 616.241 77.28C615.541 77.28 614.468 77.1867 613.021 77C611.621 76.86 610.548 76.79 609.801 76.79C609.008 76.79 607.841 76.86 606.301 77C604.808 77.1867 603.665 77.28 602.871 77.28C600.911 77.28 599.931 76.4633 599.931 74.83C599.931 73.43 600.678 72.73 602.171 72.73C602.358 72.73 602.825 72.7767 603.571 72.87C603.851 72.9633 604.225 73.01 604.691 73.01C605.485 73.01 605.975 72.6133 606.161 71.82C606.395 71.0267 606.535 69.0433 606.581 65.87L606.651 61.6V56.98C606.651 53.76 606.395 51.4267 605.881 49.98C605.415 48.4867 604.505 47.32 603.151 46.48C601.798 45.64 600.258 45.22 598.531 45.22C595.218 45.22 592.908 46.3633 591.601 48.65C590.575 50.47 590.061 53.6433 590.061 58.17V63.14C590.061 67.5267 590.155 70.28 590.341 71.4C590.575 72.4733 591.135 73.01 592.021 73.01C592.301 73.01 592.698 72.9633 593.211 72.87C593.771 72.73 594.191 72.66 594.471 72.66C595.125 72.66 595.661 72.8933 596.081 73.36C596.548 73.78 596.781 74.3167 596.781 74.97C596.781 76.51 595.685 77.28 593.491 77.28C592.791 77.28 591.741 77.1867 590.341 77C588.988 76.8133 587.961 76.72 587.261 76.72C586.281 76.72 585.208 76.8133 584.041 77C582.875 77.1867 581.848 77.28 580.961 77.28C579.048 77.28 578.091 76.4867 578.091 74.9C578.091 73.4533 578.791 72.73 580.191 72.73C580.705 72.73 581.101 72.7767 581.381 72.87C582.035 73.01 582.525 73.08 582.851 73.08C583.971 73.08 584.555 71.89 584.601 69.51L584.671 66.22C584.718 65.1933 584.741 64.19 584.741 63.21C584.788 62.37 584.811 61.9267 584.811 61.88V56.07C584.811 52.01 584.251 49.1867 583.131 47.6C582.058 46.0133 580.121 45.22 577.321 45.22C574.241 45.22 571.885 46.34 570.251 48.58C568.898 50.4 568.221 53.5733 568.221 58.1V67.41C568.221 69.2767 568.245 70.3733 568.291 70.7C568.478 72.2867 568.991 73.08 569.831 73.08C570.065 73.08 570.555 72.9867 571.301 72.8C571.395 72.8 571.535 72.7767 571.721 72.73C571.908 72.73 572.071 72.73 572.211 72.73C574.031 72.73 574.941 73.5 574.941 75.04C574.941 76.5333 573.891 77.28 571.791 77.28C570.998 77.28 570.018 77.21 568.851 77.07C567.265 76.8833 565.911 76.79 564.791 76.79C564.231 76.79 563.205 76.86 561.711 77C559.705 77.1867 558.491 77.28 558.071 77.28C556.205 77.28 555.271 76.4867 555.271 74.9C555.271 73.4533 556.158 72.73 557.931 72.73C558.025 72.73 558.165 72.73 558.351 72.73C558.538 72.7767 558.678 72.8 558.771 72.8L560.521 73.15C560.568 73.1967 560.661 73.22 560.801 73.22C562.061 73.22 562.738 72.0767 562.831 69.79L562.971 65.8V55.09C562.971 51.1233 562.855 48.65 562.621 47.67C562.435 46.69 561.875 46.2 560.941 46.2C560.755 46.2 560.101 46.3167 558.981 46.55C558.515 46.6433 558.141 46.69 557.861 46.69C556.135 46.69 555.271 45.9433 555.271 44.45C555.271 42.8633 556.228 42.07 558.141 42.07C558.655 42.07 559.355 42.1167 560.241 42.21C561.128 42.3033 561.898 42.35 562.551 42.35C562.785 42.35 563.041 42.3267 563.321 42.28C563.601 42.28 563.765 42.28 563.811 42.28L565.491 42.07H565.701C566.821 42.07 567.381 42.7467 567.381 44.1ZM655.703 56.42C655.703 58.1933 655.586 59.29 655.353 59.71C655.119 60.0833 654.443 60.27 653.323 60.27H631.063C630.456 60.27 630.059 60.3633 629.873 60.55C629.686 60.69 629.593 60.9467 629.593 61.32C629.593 64.82 630.643 67.7367 632.743 70.07C634.843 72.4033 637.456 73.57 640.583 73.57C642.636 73.57 644.503 73.01 646.183 71.89C647.909 70.77 649.029 69.3467 649.543 67.62L650.173 65.59C650.499 64.47 651.269 63.91 652.483 63.91C654.209 63.91 655.073 64.7967 655.073 66.57C655.073 69.6033 653.533 72.31 650.453 74.69C647.373 77.0233 643.873 78.19 639.953 78.19C635.053 78.19 631.156 76.5567 628.263 73.29C625.369 69.9767 623.923 65.5433 623.923 59.99C623.923 54.2967 625.463 49.6767 628.543 46.13C631.623 42.5833 635.636 40.81 640.583 40.81C644.969 40.81 648.586 42.28 651.433 45.22C654.279 48.16 655.703 51.8933 655.703 56.42ZM630.293 54.6C630.293 55.2533 630.806 55.58 631.833 55.58H648.563C649.543 55.58 650.033 55.2533 650.033 54.6C650.033 52.1267 649.099 49.98 647.233 48.16C645.366 46.34 643.173 45.43 640.653 45.43C638.039 45.43 635.659 46.3867 633.513 48.3C631.366 50.1667 630.293 52.2667 630.293 54.6ZM699.615 78.19C698.402 78.19 697.352 77.77 696.465 76.93C695.625 76.0433 695.205 74.9933 695.205 73.78C695.205 72.5667 695.625 71.54 696.465 70.7C697.352 69.8133 698.402 69.37 699.615 69.37C700.828 69.37 701.855 69.8133 702.695 70.7C703.535 71.54 703.955 72.5667 703.955 73.78C703.955 74.9933 703.535 76.0433 702.695 76.93C701.855 77.77 700.828 78.19 699.615 78.19ZM689.535 41.79C689.535 43.0033 690.142 44.0067 691.355 44.8C691.308 44.6133 691.285 44.38 691.285 44.1C691.285 43.4467 691.518 42.91 691.985 42.49C692.498 42.0233 693.128 41.79 693.875 41.79C695.928 41.79 696.955 42.8167 696.955 44.87C696.955 46.2233 696.418 47.3667 695.345 48.3C694.272 49.1867 692.942 49.63 691.355 49.63C689.302 49.63 687.598 48.9533 686.245 47.6C684.938 46.2 684.285 44.4267 684.285 42.28C684.285 38.36 685.942 35.14 689.255 32.62C692.615 30.0533 696.908 28.77 702.135 28.77C707.315 28.77 711.468 29.9833 714.595 32.41C717.768 34.8367 719.355 38.0333 719.355 42C719.355 46.9933 716.882 50.75 711.935 53.27C711.095 53.69 710.022 54.18 708.715 54.74C705.962 55.9067 704.072 57.0267 703.045 58.1C702.065 59.1733 701.575 60.5967 701.575 62.37C701.575 63.6767 701.458 64.5633 701.225 65.03C700.852 65.73 700.105 66.08 698.985 66.08C697.025 66.08 696.045 64.8667 696.045 62.44C696.045 60.2 696.605 58.2867 697.725 56.7C699.125 54.7867 701.692 52.8033 705.425 50.75C708.785 48.93 710.955 47.46 711.935 46.34C712.915 45.22 713.405 43.7033 713.405 41.79C713.405 39.2233 712.355 37.17 710.255 35.63C708.155 34.0433 705.378 33.25 701.925 33.25C698.425 33.25 695.485 34.09 693.105 35.77C690.725 37.4033 689.535 39.41 689.535 41.79Z" fill="black" fill-opacity="0.2"/>
<defs>
<linearGradient id="paint0_linear_9_648" x1="374.5" y1="19" x2="374.5" y2="89" gradientUnits="userSpaceOnUse">
<stop stop-color="#ECECEC"/>
<stop offset="0.273009" stop-color="#767373"/>
<stop offset="0.831095" stop-color="#3E3E3E"/>
</linearGradient>
</defs>
</svg>
